<?xml version="1.0" encoding="UTF-8" standalone="no"?>
<!DOCTYPE svg PUBLIC "-//W3C//DTD SVG 1.1//EN" "http://www.w3.org/Graphics/SVG/1.1/DTD/svg11.dtd">
<svg width="100%" height="100%" viewBox="0 0 1080 1080" version="1.1" xmlns="http://www.w3.org/2000/svg" xmlns:xlink="http://www.w3.org/1999/xlink" xml:space="preserve" xmlns:serif="http://www.serif.com/" style="fill-rule:evenodd;clip-rule:evenodd;stroke-linejoin:round;stroke-miterlimit:2;">
    <rect x="0" y="0" width="1080" height="1080" style="fill:rgb(8,8,208);"/>
    <g transform="matrix(6.60142,0,0,7.97776,-1510.76,-3011.94)">
        <g transform="matrix(32.7743,0,0,24,235.868,421.811)">
            <path d="M0.05,-0L0.55,-0L0.55,-0.1L0.15,-0.1L0.15,-0.7L0.05,-0.7L0.05,-0ZM-0.002,-0.8L0.602,-0.8L0.602,0.1L-0.002,0.1L-0.002,-0.8Z" style="fill:rgb(174,173,171);fill-rule:nonzero;"/>
        </g>
        <g transform="matrix(24,0,0,24,257.106,421.811)">
            <path d="M0.1,-0.1L0.05,-0.1L0.05,-0.7L0.15,-0.7L0.15,-0.15L0.2,-0.15L0.2,-0.1L0.4,-0.1L0.4,-0.15L0.45,-0.15L0.45,-0.7L0.55,-0.7L0.55,-0.1L0.5,-0.1L0.5,-0.05L0.45,-0.05L0.45,-0L0.15,-0L0.15,-0.05L0.1,-0.05L0.1,-0.1Z" style="fill:rgb(174,173,171);fill-rule:nonzero;"/>
        </g>
        <g transform="matrix(24,0,0,24,271.506,421.811)">
            <path d="M0.55,-0.1L0.5,-0.1L0.5,-0.05L0.45,-0.05L0.45,-0L0.05,-0L0.05,-0.7L0.45,-0.7L0.45,-0.65L0.5,-0.65L0.5,-0.6L0.55,-0.6L0.55,-0.1ZM0.45,-0.15L0.45,-0.55L0.4,-0.55L0.4,-0.6L0.15,-0.6L0.15,-0.1L0.4,-0.1L0.4,-0.15L0.45,-0.15Z" style="fill:rgb(174,173,171);fill-rule:nonzero;"/>
        </g>
        <g transform="matrix(24,0,0,24,285.906,421.811)">
            <path d="M0.15,-0L0.15,-0.1L0.25,-0.1L0.25,-0.6L0.15,-0.6L0.15,-0.7L0.45,-0.7L0.45,-0.6L0.35,-0.6L0.35,-0.1L0.45,-0.1L0.45,-0L0.15,-0Z" style="fill:rgb(174,173,171);fill-rule:nonzero;"/>
        </g>
        <g transform="matrix(32.7743,0,0,24,235.868,443.024)">
            <path d="M0.1,-0.1L0.1,-0.05L0.15,-0.05L0.15,-0L0.45,-0L0.45,-0.05L0.5,-0.05L0.5,-0.1L0.55,-0.1L0.55,-0.7L0.45,-0.7L0.45,-0.15L0.4,-0.15L0.4,-0.1L0.2,-0.1L0.2,-0.15L0.15,-0.15L0.15,-0.7L0.05,-0.7L0.05,-0.1L0.1,-0.1ZM-0.002,-0.8L0.602,-0.8L0.602,0.1L-0.002,0.1L-0.002,-0.8Z" style="fill:rgb(174,173,171);fill-rule:nonzero;"/>
        </g>
        <g transform="matrix(24,0,0,24,257.106,443.024)">
            <path d="M0.05,-0L0.05,-0.7L0.15,-0.7L0.15,-0.6L0.2,-0.6L0.2,-0.5L0.25,-0.5L0.25,-0.45L0.3,-0.45L0.3,-0.4L0.35,-0.4L0.35,-0.35L0.4,-0.35L0.4,-0.3L0.45,-0.3L0.45,-0.7L0.55,-0.7L0.55,-0L0.45,-0L0.45,-0.1L0.4,-0.1L0.4,-0.2L0.35,-0.2L0.35,-0.25L0.3,-0.25L0.3,-0.3L0.25,-0.3L0.25,-0.35L0.2,-0.35L0.2,-0.4L0.15,-0.4L0.15,-0L0.05,-0Z" style="fill:rgb(174,173,171);fill-rule:nonzero;"/>
        </g>
        <g transform="matrix(24,0,0,24,271.506,443.024)">
            <path d="M0.15,-0L0.15,-0.1L0.25,-0.1L0.25,-0.6L0.15,-0.6L0.15,-0.7L0.45,-0.7L0.45,-0.6L0.35,-0.6L0.35,-0.1L0.45,-0.1L0.45,-0L0.15,-0Z" style="fill:rgb(174,173,171);fill-rule:nonzero;"/>
        </g>
        <g transform="matrix(24,0,0,24,285.906,443.024)">
            <path d="M0.05,-0L0.05,-0.7L0.55,-0.7L0.55,-0.6L0.15,-0.6L0.15,-0.4L0.5,-0.4L0.5,-0.3L0.15,-0.3L0.15,-0L0.05,-0Z" style="fill:rgb(174,173,171);fill-rule:nonzero;"/>
        </g>
        <g transform="matrix(24,0,0,24,300.306,443.024)">
            <path d="M0.15,-0L0.15,-0.1L0.25,-0.1L0.25,-0.6L0.15,-0.6L0.15,-0.7L0.45,-0.7L0.45,-0.6L0.35,-0.6L0.35,-0.1L0.45,-0.1L0.45,-0L0.15,-0Z" style="fill:rgb(174,173,171);fill-rule:nonzero;"/>
        </g>
        <g transform="matrix(24,0,0,24,314.706,443.024)">
            <path d="M0.05,-0L0.05,-0.7L0.55,-0.7L0.55,-0.6L0.15,-0.6L0.15,-0.4L0.5,-0.4L0.5,-0.3L0.15,-0.3L0.15,-0.1L0.55,-0.1L0.55,-0L0.05,-0Z" style="fill:rgb(174,173,171);fill-rule:nonzero;"/>
        </g>
        <g transform="matrix(24,0,0,24,329.106,443.024)">
            <path d="M0.1,-0.1L0.05,-0.1L0.05,-0.2L0.15,-0.2L0.15,-0.15L0.2,-0.15L0.2,-0.1L0.4,-0.1L0.4,-0.15L0.45,-0.15L0.45,-0.25L0.4,-0.25L0.4,-0.3L0.15,-0.3L0.15,-0.35L0.1,-0.35L0.1,-0.4L0.05,-0.4L0.05,-0.6L0.1,-0.6L0.1,-0.65L0.15,-0.65L0.15,-0.7L0.45,-0.7L0.45,-0.65L0.5,-0.65L0.5,-0.6L0.55,-0.6L0.55,-0.5L0.45,-0.5L0.45,-0.55L0.4,-0.55L0.4,-0.6L0.2,-0.6L0.2,-0.55L0.15,-0.55L0.15,-0.45L0.2,-0.45L0.2,-0.4L0.45,-0.4L0.45,-0.35L0.5,-0.35L0.5,-0.3L0.55,-0.3L0.55,-0.1L0.5,-0.1L0.5,-0.05L0.45,-0.05L0.45,-0L0.15,-0L0.15,-0.05L0.1,-0.05L0.1,-0.1Z" style="fill:rgb(174,173,171);fill-rule:nonzero;"/>
        </g>
        <g transform="matrix(32.7743,0,0,24,235.868,464.236)">
            <path d="M0.55,-0.1L0.55,-0.6L0.5,-0.6L0.5,-0.65L0.45,-0.65L0.45,-0.7L0.05,-0.7L0.05,-0L0.45,-0L0.45,-0.05L0.5,-0.05L0.5,-0.1L0.55,-0.1ZM0.45,-0.15L0.4,-0.15L0.4,-0.1L0.15,-0.1L0.15,-0.6L0.4,-0.6L0.4,-0.55L0.45,-0.55L0.45,-0.15ZM-0.002,-0.8L0.602,-0.8L0.602,0.1L-0.002,0.1L-0.002,-0.8Z" style="fill:rgb(174,173,171);fill-rule:nonzero;"/>
        </g>
        <g transform="matrix(24,0,0,24,257.106,464.236)">
            <path d="M0.05,-0L0.05,-0.7L0.55,-0.7L0.55,-0.6L0.15,-0.6L0.15,-0.4L0.5,-0.4L0.5,-0.3L0.15,-0.3L0.15,-0.1L0.55,-0.1L0.55,-0L0.05,-0Z" style="fill:rgb(174,173,171);fill-rule:nonzero;"/>
        </g>
        <g transform="matrix(24,0,0,24,271.506,464.236)">
            <path d="M0.1,-0.1L0.05,-0.1L0.05,-0.6L0.1,-0.6L0.1,-0.65L0.15,-0.65L0.15,-0.7L0.45,-0.7L0.45,-0.65L0.5,-0.65L0.5,-0.6L0.55,-0.6L0.55,-0.5L0.45,-0.5L0.45,-0.55L0.4,-0.55L0.4,-0.6L0.2,-0.6L0.2,-0.55L0.15,-0.55L0.15,-0.15L0.2,-0.15L0.2,-0.1L0.4,-0.1L0.4,-0.15L0.45,-0.15L0.45,-0.2L0.55,-0.2L0.55,-0.1L0.5,-0.1L0.5,-0.05L0.45,-0.05L0.45,-0L0.15,-0L0.15,-0.05L0.1,-0.05L0.1,-0.1Z" style="fill:rgb(174,173,171);fill-rule:nonzero;"/>
        </g>
        <g transform="matrix(24,0,0,24,285.906,464.236)">
            <path d="M0.15,-0.15L0.2,-0.15L0.2,-0.1L0.4,-0.1L0.4,-0.15L0.45,-0.15L0.45,-0.55L0.4,-0.55L0.4,-0.6L0.2,-0.6L0.2,-0.55L0.15,-0.55L0.15,-0.15ZM0.1,-0.1L0.05,-0.1L0.05,-0.6L0.1,-0.6L0.1,-0.65L0.15,-0.65L0.15,-0.7L0.45,-0.7L0.45,-0.65L0.5,-0.65L0.5,-0.6L0.55,-0.6L0.55,-0.1L0.5,-0.1L0.5,-0.05L0.45,-0.05L0.45,-0L0.15,-0L0.15,-0.05L0.1,-0.05L0.1,-0.1Z" style="fill:rgb(174,173,171);fill-rule:nonzero;"/>
        </g>
        <g transform="matrix(24,0,0,24,300.306,464.236)">
            <path d="M0.05,-0L0.05,-0.7L0.15,-0.7L0.15,-0.6L0.2,-0.6L0.2,-0.55L0.25,-0.55L0.25,-0.5L0.35,-0.5L0.35,-0.55L0.4,-0.55L0.4,-0.6L0.45,-0.6L0.45,-0.7L0.55,-0.7L0.55,-0L0.45,-0L0.45,-0.45L0.4,-0.45L0.4,-0.4L0.35,-0.4L0.35,-0.3L0.25,-0.3L0.25,-0.4L0.2,-0.4L0.2,-0.45L0.15,-0.45L0.15,-0L0.05,-0Z" style="fill:rgb(174,173,171);fill-rule:nonzero;"/>
        </g>
        <g transform="matrix(24,0,0,24,314.706,464.236)">
            <path d="M0.05,-0L0.05,-0.7L0.45,-0.7L0.45,-0.65L0.5,-0.65L0.5,-0.6L0.55,-0.6L0.55,-0.4L0.5,-0.4L0.5,-0.35L0.45,-0.35L0.45,-0.3L0.15,-0.3L0.15,-0L0.05,-0ZM0.15,-0.4L0.4,-0.4L0.4,-0.45L0.45,-0.45L0.45,-0.55L0.4,-0.55L0.4,-0.6L0.15,-0.6L0.15,-0.4Z" style="fill:rgb(174,173,171);fill-rule:nonzero;"/>
        </g>
        <g transform="matrix(24,0,0,24,329.106,464.236)">
            <path d="M0.15,-0L0.15,-0.1L0.25,-0.1L0.25,-0.6L0.15,-0.6L0.15,-0.7L0.45,-0.7L0.45,-0.6L0.35,-0.6L0.35,-0.1L0.45,-0.1L0.45,-0L0.15,-0Z" style="fill:rgb(174,173,171);fill-rule:nonzero;"/>
        </g>
        <g transform="matrix(24,0,0,24,343.506,464.236)">
            <path d="M0.05,-0L0.05,-0.7L0.15,-0.7L0.15,-0.1L0.55,-0.1L0.55,-0L0.05,-0Z" style="fill:rgb(174,173,171);fill-rule:nonzero;"/>
        </g>
        <g transform="matrix(24,0,0,24,357.906,464.236)">
            <path d="M0.05,-0L0.05,-0.7L0.55,-0.7L0.55,-0.6L0.15,-0.6L0.15,-0.4L0.5,-0.4L0.5,-0.3L0.15,-0.3L0.15,-0.1L0.55,-0.1L0.55,-0L0.05,-0Z" style="fill:rgb(174,173,171);fill-rule:nonzero;"/>
        </g>
        <g transform="matrix(24,0,0,24,372.306,464.236)">
            <path d="M0.15,-0.4L0.4,-0.4L0.4,-0.45L0.45,-0.45L0.45,-0.55L0.4,-0.55L0.4,-0.6L0.15,-0.6L0.15,-0.4ZM0.05,-0L0.05,-0.7L0.45,-0.7L0.45,-0.65L0.5,-0.65L0.5,-0.6L0.55,-0.6L0.55,-0.4L0.5,-0.4L0.5,-0.35L0.45,-0.35L0.45,-0.3L0.4,-0.3L0.4,-0.25L0.45,-0.25L0.45,-0.15L0.5,-0.15L0.5,-0.05L0.55,-0.05L0.55,-0L0.4,-0L0.4,-0.1L0.35,-0.1L0.35,-0.2L0.3,-0.2L0.3,-0.3L0.15,-0.3L0.15,-0L0.05,-0Z" style="fill:rgb(174,173,171);fill-rule:nonzero;"/>
        </g>
        <g transform="matrix(32.7743,0,0,24,235.868,485.448)">
            <path d="M0.15,-0L0.45,-0L0.45,-0.1L0.35,-0.1L0.35,-0.6L0.45,-0.6L0.45,-0.7L0.15,-0.7L0.15,-0.6L0.25,-0.6L0.25,-0.1L0.15,-0.1L0.15,-0ZM-0.002,-0.8L0.602,-0.8L0.602,0.1L-0.002,0.1L-0.002,-0.8Z" style="fill:rgb(174,173,171);fill-rule:nonzero;"/>
        </g>
        <g transform="matrix(24,0,0,24,257.106,485.448)">
            <path d="M0.05,-0L0.05,-0.7L0.15,-0.7L0.15,-0.6L0.2,-0.6L0.2,-0.5L0.25,-0.5L0.25,-0.45L0.3,-0.45L0.3,-0.4L0.35,-0.4L0.35,-0.35L0.4,-0.35L0.4,-0.3L0.45,-0.3L0.45,-0.7L0.55,-0.7L0.55,-0L0.45,-0L0.45,-0.1L0.4,-0.1L0.4,-0.2L0.35,-0.2L0.35,-0.25L0.3,-0.25L0.3,-0.3L0.25,-0.3L0.25,-0.35L0.2,-0.35L0.2,-0.4L0.15,-0.4L0.15,-0L0.05,-0Z" style="fill:rgb(174,173,171);fill-rule:nonzero;"/>
        </g>
        <g transform="matrix(24,0,0,24,271.506,485.448)">
            <path d="M0.25,-0L0.25,-0.6L0.05,-0.6L0.05,-0.7L0.55,-0.7L0.55,-0.6L0.35,-0.6L0.35,-0L0.25,-0Z" style="fill:rgb(174,173,171);fill-rule:nonzero;"/>
        </g>
        <g transform="matrix(24,0,0,24,285.906,485.448)">
            <path d="M0.05,-0L0.05,-0.7L0.55,-0.7L0.55,-0.6L0.15,-0.6L0.15,-0.4L0.5,-0.4L0.5,-0.3L0.15,-0.3L0.15,-0.1L0.55,-0.1L0.55,-0L0.05,-0Z" style="fill:rgb(174,173,171);fill-rule:nonzero;"/>
        </g>
        <g transform="matrix(24,0,0,24,300.306,485.448)">
            <path d="M0.15,-0.4L0.4,-0.4L0.4,-0.45L0.45,-0.45L0.45,-0.55L0.4,-0.55L0.4,-0.6L0.15,-0.6L0.15,-0.4ZM0.05,-0L0.05,-0.7L0.45,-0.7L0.45,-0.65L0.5,-0.65L0.5,-0.6L0.55,-0.6L0.55,-0.4L0.5,-0.4L0.5,-0.35L0.45,-0.35L0.45,-0.3L0.4,-0.3L0.4,-0.25L0.45,-0.25L0.45,-0.15L0.5,-0.15L0.5,-0.05L0.55,-0.05L0.55,-0L0.4,-0L0.4,-0.1L0.35,-0.1L0.35,-0.2L0.3,-0.2L0.3,-0.3L0.15,-0.3L0.15,-0L0.05,-0Z" style="fill:rgb(174,173,171);fill-rule:nonzero;"/>
        </g>
        <g transform="matrix(24,0,0,24,314.706,485.448)">
            <path d="M0.05,-0L0.05,-0.7L0.55,-0.7L0.55,-0.6L0.15,-0.6L0.15,-0.4L0.5,-0.4L0.5,-0.3L0.15,-0.3L0.15,-0L0.05,-0Z" style="fill:rgb(174,173,171);fill-rule:nonzero;"/>
        </g>
        <g transform="matrix(24,0,0,24,329.106,485.448)">
            <path d="M0.15,-0.3L0.45,-0.3L0.45,-0.45L0.4,-0.45L0.4,-0.5L0.35,-0.5L0.35,-0.55L0.25,-0.55L0.25,-0.5L0.2,-0.5L0.2,-0.45L0.15,-0.45L0.15,-0.3ZM0.05,-0L0.05,-0.5L0.1,-0.5L0.1,-0.55L0.15,-0.55L0.15,-0.6L0.2,-0.6L0.2,-0.65L0.25,-0.65L0.25,-0.7L0.35,-0.7L0.35,-0.65L0.4,-0.65L0.4,-0.6L0.45,-0.6L0.45,-0.55L0.5,-0.55L0.5,-0.5L0.55,-0.5L0.55,-0L0.45,-0L0.45,-0.2L0.15,-0.2L0.15,-0L0.05,-0Z" style="fill:rgb(174,173,171);fill-rule:nonzero;"/>
        </g>
        <g transform="matrix(24,0,0,24,343.506,485.448)">
            <path d="M0.1,-0.1L0.05,-0.1L0.05,-0.6L0.1,-0.6L0.1,-0.65L0.15,-0.65L0.15,-0.7L0.45,-0.7L0.45,-0.65L0.5,-0.65L0.5,-0.6L0.55,-0.6L0.55,-0.5L0.45,-0.5L0.45,-0.55L0.4,-0.55L0.4,-0.6L0.2,-0.6L0.2,-0.55L0.15,-0.55L0.15,-0.15L0.2,-0.15L0.2,-0.1L0.4,-0.1L0.4,-0.15L0.45,-0.15L0.45,-0.2L0.55,-0.2L0.55,-0.1L0.5,-0.1L0.5,-0.05L0.45,-0.05L0.45,-0L0.15,-0L0.15,-0.05L0.1,-0.05L0.1,-0.1Z" style="fill:rgb(174,173,171);fill-rule:nonzero;"/>
        </g>
        <g transform="matrix(24,0,0,24,357.906,485.448)">
            <path d="M0.05,-0L0.05,-0.7L0.55,-0.7L0.55,-0.6L0.15,-0.6L0.15,-0.4L0.5,-0.4L0.5,-0.3L0.15,-0.3L0.15,-0.1L0.55,-0.1L0.55,-0L0.05,-0Z" style="fill:rgb(174,173,171);fill-rule:nonzero;"/>
        </g>
        <g transform="matrix(24,0,0,24,372.306,485.448)">
            <path d="M0.1,-0.1L0.05,-0.1L0.05,-0.2L0.15,-0.2L0.15,-0.15L0.2,-0.15L0.2,-0.1L0.4,-0.1L0.4,-0.15L0.45,-0.15L0.45,-0.25L0.4,-0.25L0.4,-0.3L0.15,-0.3L0.15,-0.35L0.1,-0.35L0.1,-0.4L0.05,-0.4L0.05,-0.6L0.1,-0.6L0.1,-0.65L0.15,-0.65L0.15,-0.7L0.45,-0.7L0.45,-0.65L0.5,-0.65L0.5,-0.6L0.55,-0.6L0.55,-0.5L0.45,-0.5L0.45,-0.55L0.4,-0.55L0.4,-0.6L0.2,-0.6L0.2,-0.55L0.15,-0.55L0.15,-0.45L0.2,-0.45L0.2,-0.4L0.45,-0.4L0.45,-0.35L0.5,-0.35L0.5,-0.3L0.55,-0.3L0.55,-0.1L0.5,-0.1L0.5,-0.05L0.45,-0.05L0.45,-0L0.15,-0L0.15,-0.05L0.1,-0.05L0.1,-0.1Z" style="fill:rgb(174,173,171);fill-rule:nonzero;"/>
        </g>
    </g>
</svg>
