<svg class="rich-terminal" viewBox="0 0 1165 489.2" xmlns="http://www.w3.org/2000/svg">
    <!-- Generated with Rich https://www.textualize.io -->
    <style>

    @font-face {
        font-family: "Fira Code";
        src: local("FiraCode-Regular"),
                url("https://cdnjs.cloudflare.com/ajax/libs/firacode/6.2.0/woff2/FiraCode-Regular.woff2") format("woff2"),
                url("https://cdnjs.cloudflare.com/ajax/libs/firacode/6.2.0/woff/FiraCode-Regular.woff") format("woff");
        font-style: normal;
        font-weight: 400;
    }
    @font-face {
        font-family: "Fira Code";
        src: local("FiraCode-Bold"),
                url("https://cdnjs.cloudflare.com/ajax/libs/firacode/6.2.0/woff2/FiraCode-Bold.woff2") format("woff2"),
                url("https://cdnjs.cloudflare.com/ajax/libs/firacode/6.2.0/woff/FiraCode-Bold.woff") format("woff");
        font-style: bold;
        font-weight: 700;
    }

    .terminal-1540721784-matrix {
        font-family: Fira Code, monospace;
        font-size: 20px;
        line-height: 24.4px;
        font-variant-east-asian: full-width;
    }

    .terminal-1540721784-title {
        font-size: 18px;
        font-weight: bold;
        font-family: arial;
    }

    .terminal-1540721784-r1 { fill: #c5c8c6 }
.terminal-1540721784-r2 { fill: #e0e0e0 }
.terminal-1540721784-r3 { fill: #a0a3a6 }
.terminal-1540721784-r4 { fill: #e0e0e0;font-weight: bold }
.terminal-1540721784-r5 { fill: #999999;font-style: italic; }
.terminal-1540721784-r6 { fill: #ddedf9;font-weight: bold }
.terminal-1540721784-r7 { fill: #ddedf9;font-weight: bold;font-style: italic; }
.terminal-1540721784-r8 { fill: #ffa62b }
.terminal-1540721784-r9 { fill: #e0e0e0;font-style: italic; }
.terminal-1540721784-r10 { fill: #ffa62b;font-weight: bold }
.terminal-1540721784-r11 { fill: #495259 }
    </style>

    <defs>
    <clipPath id="terminal-1540721784-clip-terminal">
      <rect x="0" y="0" width="1145.8" height="438.2" />
    </clipPath>
    <clipPath id="terminal-1540721784-line-0">
    <rect x="0" y="1.5" width="1146.8" height="24.65"/>
            </clipPath>
<clipPath id="terminal-1540721784-line-1">
    <rect x="0" y="25.9" width="1146.8" height="24.65"/>
            </clipPath>
<clipPath id="terminal-1540721784-line-2">
    <rect x="0" y="50.3" width="1146.8" height="24.65"/>
            </clipPath>
<clipPath id="terminal-1540721784-line-3">
    <rect x="0" y="74.7" width="1146.8" height="24.65"/>
            </clipPath>
<clipPath id="terminal-1540721784-line-4">
    <rect x="0" y="99.1" width="1146.8" height="24.65"/>
            </clipPath>
<clipPath id="terminal-1540721784-line-5">
    <rect x="0" y="123.5" width="1146.8" height="24.65"/>
            </clipPath>
<clipPath id="terminal-1540721784-line-6">
    <rect x="0" y="147.9" width="1146.8" height="24.65"/>
            </clipPath>
<clipPath id="terminal-1540721784-line-7">
    <rect x="0" y="172.3" width="1146.8" height="24.65"/>
            </clipPath>
<clipPath id="terminal-1540721784-line-8">
    <rect x="0" y="196.7" width="1146.8" height="24.65"/>
            </clipPath>
<clipPath id="terminal-1540721784-line-9">
    <rect x="0" y="221.1" width="1146.8" height="24.65"/>
            </clipPath>
<clipPath id="terminal-1540721784-line-10">
    <rect x="0" y="245.5" width="1146.8" height="24.65"/>
            </clipPath>
<clipPath id="terminal-1540721784-line-11">
    <rect x="0" y="269.9" width="1146.8" height="24.65"/>
            </clipPath>
<clipPath id="terminal-1540721784-line-12">
    <rect x="0" y="294.3" width="1146.8" height="24.65"/>
            </clipPath>
<clipPath id="terminal-1540721784-line-13">
    <rect x="0" y="318.7" width="1146.8" height="24.65"/>
            </clipPath>
<clipPath id="terminal-1540721784-line-14">
    <rect x="0" y="343.1" width="1146.8" height="24.65"/>
            </clipPath>
<clipPath id="terminal-1540721784-line-15">
    <rect x="0" y="367.5" width="1146.8" height="24.65"/>
            </clipPath>
<clipPath id="terminal-1540721784-line-16">
    <rect x="0" y="391.9" width="1146.8" height="24.65"/>
            </clipPath>
    </defs>

    <rect fill="#292929" stroke="rgba(255,255,255,0.35)" stroke-width="1" x="1" y="1" width="1163" height="487.2" rx="8"/><text class="terminal-1540721784-title" fill="#c5c8c6" text-anchor="middle" x="581" y="27">MudusViewApp</text>
            <g transform="translate(26,22)">
            <circle cx="0" cy="0" r="7" fill="#ff5f57"/>
            <circle cx="22" cy="0" r="7" fill="#febc2e"/>
            <circle cx="44" cy="0" r="7" fill="#28c840"/>
            </g>
        
    <g transform="translate(9, 41)" clip-path="url(#terminal-1540721784-clip-terminal)">
    <rect fill="#242f38" x="0" y="1.5" width="12.2" height="24.65" shape-rendering="crispEdges"/><rect fill="#242f38" x="12.2" y="1.5" width="12.2" height="24.65" shape-rendering="crispEdges"/><rect fill="#242f38" x="24.4" y="1.5" width="61" height="24.65" shape-rendering="crispEdges"/><rect fill="#242f38" x="85.4" y="1.5" width="12.2" height="24.65" shape-rendering="crispEdges"/><rect fill="#242f38" x="97.6" y="1.5" width="183" height="24.65" shape-rendering="crispEdges"/><rect fill="#242f38" x="280.6" y="1.5" width="207.4" height="24.65" shape-rendering="crispEdges"/><rect fill="#242f38" x="488" y="1.5" width="341.6" height="24.65" shape-rendering="crispEdges"/><rect fill="#242f38" x="829.6" y="1.5" width="195.2" height="24.65" shape-rendering="crispEdges"/><rect fill="#242f38" x="1024.8" y="1.5" width="12.2" height="24.65" shape-rendering="crispEdges"/><rect fill="#242f38" x="1037" y="1.5" width="0" height="24.65" shape-rendering="crispEdges"/><rect fill="#242f38" x="1037" y="1.5" width="97.6" height="24.65" shape-rendering="crispEdges"/><rect fill="#242f38" x="1134.6" y="1.5" width="12.2" height="24.65" shape-rendering="crispEdges"/><rect fill="#121212" x="0" y="25.9" width="341.6" height="24.65" shape-rendering="crispEdges"/><rect fill="#121212" x="341.6" y="25.9" width="61" height="24.65" shape-rendering="crispEdges"/><rect fill="#121212" x="402.6" y="25.9" width="134.2" height="24.65" shape-rendering="crispEdges"/><rect fill="#121212" x="536.8" y="25.9" width="170.8" height="24.65" shape-rendering="crispEdges"/><rect fill="#121212" x="707.6" y="25.9" width="439.2" height="24.65" shape-rendering="crispEdges"/><rect fill="#121212" x="0" y="50.3" width="683.2" height="24.65" shape-rendering="crispEdges"/><rect fill="#121212" x="683.2" y="50.3" width="463.6" height="24.65" shape-rendering="crispEdges"/><rect fill="#2d3740" x="0" y="74.7" width="597.8" height="24.65" shape-rendering="crispEdges"/><rect fill="#2d3740" x="597.8" y="74.7" width="268.4" height="24.65" shape-rendering="crispEdges"/><rect fill="#2d3740" x="866.2" y="74.7" width="280.6" height="24.65" shape-rendering="crispEdges"/><rect fill="#2b3339" x="1146.8" y="74.7" width="0" height="24.65" shape-rendering="crispEdges"/><rect fill="#0178d4" x="0" y="99.1" width="12.2" height="24.65" shape-rendering="crispEdges"/><rect fill="#0178d4" x="12.2" y="99.1" width="292.8" height="24.65" shape-rendering="crispEdges"/><rect fill="#0178d4" x="305" y="99.1" width="292.8" height="24.65" shape-rendering="crispEdges"/><rect fill="#0178d4" x="597.8" y="99.1" width="195.2" height="24.65" shape-rendering="crispEdges"/><rect fill="#0178d4" x="793" y="99.1" width="61" height="24.65" shape-rendering="crispEdges"/><rect fill="#0178d4" x="854" y="99.1" width="12.2" height="24.65" shape-rendering="crispEdges"/><rect fill="#0178d4" x="866.2" y="99.1" width="195.2" height="24.65" shape-rendering="crispEdges"/><rect fill="#0178d4" x="1061.4" y="99.1" width="73.2" height="24.65" shape-rendering="crispEdges"/><rect fill="#0178d4" x="1134.6" y="99.1" width="12.2" height="24.65" shape-rendering="crispEdges"/><rect fill="#272727" x="1146.8" y="99.1" width="0" height="24.65" shape-rendering="crispEdges"/><rect fill="#272727" x="0" y="123.5" width="12.2" height="24.65" shape-rendering="crispEdges"/><rect fill="#272727" x="12.2" y="123.5" width="573.4" height="24.65" shape-rendering="crispEdges"/><rect fill="#272727" x="585.6" y="123.5" width="12.2" height="24.65" shape-rendering="crispEdges"/><rect fill="#272727" x="597.8" y="123.5" width="12.2" height="24.65" shape-rendering="crispEdges"/><rect fill="#272727" x="610" y="123.5" width="244" height="24.65" shape-rendering="crispEdges"/><rect fill="#272727" x="854" y="123.5" width="12.2" height="24.65" shape-rendering="crispEdges"/><rect fill="#272727" x="866.2" y="123.5" width="12.2" height="24.65" shape-rendering="crispEdges"/><rect fill="#272727" x="878.4" y="123.5" width="256.2" height="24.65" shape-rendering="crispEdges"/><rect fill="#272727" x="1134.6" y="123.5" width="12.2" height="24.65" shape-rendering="crispEdges"/><rect fill="#272727" x="1146.8" y="123.5" width="0" height="24.65" shape-rendering="crispEdges"/><rect fill="#272727" x="0" y="147.9" width="12.2" height="24.65" shape-rendering="crispEdges"/><rect fill="#272727" x="12.2" y="147.9" width="573.4" height="24.65" shape-rendering="crispEdges"/><rect fill="#272727" x="585.6" y="147.9" width="12.2" height="24.65" shape-rendering="crispEdges"/><rect fill="#272727" x="597.8" y="147.9" width="12.2" height="24.65" shape-rendering="crispEdges"/><rect fill="#272727" x="610" y="147.9" width="244" height="24.65" shape-rendering="crispEdges"/><rect fill="#272727" x="854" y="147.9" width="12.2" height="24.65" shape-rendering="crispEdges"/><rect fill="#272727" x="866.2" y="147.9" width="12.2" height="24.65" shape-rendering="crispEdges"/><rect fill="#272727" x="878.4" y="147.9" width="256.2" height="24.65" shape-rendering="crispEdges"/><rect fill="#272727" x="1134.6" y="147.9" width="12.2" height="24.65" shape-rendering="crispEdges"/><rect fill="#272727" x="1146.8" y="147.9" width="0" height="24.65" shape-rendering="crispEdges"/><rect fill="#272727" x="0" y="172.3" width="12.2" height="24.65" shape-rendering="crispEdges"/><rect fill="#272727" x="12.2" y="172.3" width="573.4" height="24.65" shape-rendering="crispEdges"/><rect fill="#272727" x="585.6" y="172.3" width="12.2" height="24.65" shape-rendering="crispEdges"/><rect fill="#272727" x="597.8" y="172.3" width="12.2" height="24.65" shape-rendering="crispEdges"/><rect fill="#272727" x="610" y="172.3" width="244" height="24.65" shape-rendering="crispEdges"/><rect fill="#272727" x="854" y="172.3" width="12.2" height="24.65" shape-rendering="crispEdges"/><rect fill="#272727" x="866.2" y="172.3" width="12.2" height="24.65" shape-rendering="crispEdges"/><rect fill="#272727" x="878.4" y="172.3" width="256.2" height="24.65" shape-rendering="crispEdges"/><rect fill="#272727" x="1134.6" y="172.3" width="12.2" height="24.65" shape-rendering="crispEdges"/><rect fill="#272727" x="1146.8" y="172.3" width="0" height="24.65" shape-rendering="crispEdges"/><rect fill="#272727" x="0" y="196.7" width="12.2" height="24.65" shape-rendering="crispEdges"/><rect fill="#272727" x="12.2" y="196.7" width="573.4" height="24.65" shape-rendering="crispEdges"/><rect fill="#272727" x="585.6" y="196.7" width="12.2" height="24.65" shape-rendering="crispEdges"/><rect fill="#272727" x="597.8" y="196.7" width="12.2" height="24.65" shape-rendering="crispEdges"/><rect fill="#272727" x="610" y="196.7" width="244" height="24.65" shape-rendering="crispEdges"/><rect fill="#272727" x="854" y="196.7" width="12.2" height="24.65" shape-rendering="crispEdges"/><rect fill="#272727" x="866.2" y="196.7" width="12.2" height="24.65" shape-rendering="crispEdges"/><rect fill="#272727" x="878.4" y="196.7" width="256.2" height="24.65" shape-rendering="crispEdges"/><rect fill="#272727" x="1134.6" y="196.7" width="12.2" height="24.65" shape-rendering="crispEdges"/><rect fill="#272727" x="1146.8" y="196.7" width="0" height="24.65" shape-rendering="crispEdges"/><rect fill="#272727" x="0" y="221.1" width="12.2" height="24.65" shape-rendering="crispEdges"/><rect fill="#272727" x="12.2" y="221.1" width="573.4" height="24.65" shape-rendering="crispEdges"/><rect fill="#272727" x="585.6" y="221.1" width="12.2" height="24.65" shape-rendering="crispEdges"/><rect fill="#272727" x="597.8" y="221.1" width="12.2" height="24.65" shape-rendering="crispEdges"/><rect fill="#272727" x="610" y="221.1" width="244" height="24.65" shape-rendering="crispEdges"/><rect fill="#272727" x="854" y="221.1" width="12.2" height="24.65" shape-rendering="crispEdges"/><rect fill="#272727" x="866.2" y="221.1" width="12.2" height="24.65" shape-rendering="crispEdges"/><rect fill="#272727" x="878.4" y="221.1" width="256.2" height="24.65" shape-rendering="crispEdges"/><rect fill="#272727" x="1134.6" y="221.1" width="12.2" height="24.65" shape-rendering="crispEdges"/><rect fill="#272727" x="1146.8" y="221.1" width="0" height="24.65" shape-rendering="crispEdges"/><rect fill="#272727" x="0" y="245.5" width="12.2" height="24.65" shape-rendering="crispEdges"/><rect fill="#272727" x="12.2" y="245.5" width="573.4" height="24.65" shape-rendering="crispEdges"/><rect fill="#272727" x="585.6" y="245.5" width="12.2" height="24.65" shape-rendering="crispEdges"/><rect fill="#272727" x="597.8" y="245.5" width="12.2" height="24.65" shape-rendering="crispEdges"/><rect fill="#272727" x="610" y="245.5" width="244" height="24.65" shape-rendering="crispEdges"/><rect fill="#272727" x="854" y="245.5" width="12.2" height="24.65" shape-rendering="crispEdges"/><rect fill="#272727" x="866.2" y="245.5" width="12.2" height="24.65" shape-rendering="crispEdges"/><rect fill="#272727" x="878.4" y="245.5" width="256.2" height="24.65" shape-rendering="crispEdges"/><rect fill="#272727" x="1134.6" y="245.5" width="12.2" height="24.65" shape-rendering="crispEdges"/><rect fill="#272727" x="1146.8" y="245.5" width="0" height="24.65" shape-rendering="crispEdges"/><rect fill="#272727" x="0" y="269.9" width="12.2" height="24.65" shape-rendering="crispEdges"/><rect fill="#272727" x="12.2" y="269.9" width="573.4" height="24.65" shape-rendering="crispEdges"/><rect fill="#272727" x="585.6" y="269.9" width="12.2" height="24.65" shape-rendering="crispEdges"/><rect fill="#272727" x="597.8" y="269.9" width="12.2" height="24.65" shape-rendering="crispEdges"/><rect fill="#272727" x="610" y="269.9" width="244" height="24.65" shape-rendering="crispEdges"/><rect fill="#272727" x="854" y="269.9" width="12.2" height="24.65" shape-rendering="crispEdges"/><rect fill="#272727" x="866.2" y="269.9" width="12.2" height="24.65" shape-rendering="crispEdges"/><rect fill="#272727" x="878.4" y="269.9" width="256.2" height="24.65" shape-rendering="crispEdges"/><rect fill="#272727" x="1134.6" y="269.9" width="12.2" height="24.65" shape-rendering="crispEdges"/><rect fill="#272727" x="1146.8" y="269.9" width="0" height="24.65" shape-rendering="crispEdges"/><rect fill="#272727" x="0" y="294.3" width="12.2" height="24.65" shape-rendering="crispEdges"/><rect fill="#272727" x="12.2" y="294.3" width="219.6" height="24.65" shape-rendering="crispEdges"/><rect fill="#272727" x="231.8" y="294.3" width="366" height="24.65" shape-rendering="crispEdges"/><rect fill="#272727" x="597.8" y="294.3" width="207.4" height="24.65" shape-rendering="crispEdges"/><rect fill="#272727" x="805.2" y="294.3" width="48.8" height="24.65" shape-rendering="crispEdges"/><rect fill="#272727" x="854" y="294.3" width="12.2" height="24.65" shape-rendering="crispEdges"/><rect fill="#272727" x="866.2" y="294.3" width="256.2" height="24.65" shape-rendering="crispEdges"/><rect fill="#272727" x="1122.4" y="294.3" width="12.2" height="24.65" shape-rendering="crispEdges"/><rect fill="#272727" x="1134.6" y="294.3" width="12.2" height="24.65" shape-rendering="crispEdges"/><rect fill="#272727" x="1146.8" y="294.3" width="0" height="24.65" shape-rendering="crispEdges"/><rect fill="#272727" x="0" y="318.7" width="12.2" height="24.65" shape-rendering="crispEdges"/><rect fill="#272727" x="12.2" y="318.7" width="268.4" height="24.65" shape-rendering="crispEdges"/><rect fill="#272727" x="280.6" y="318.7" width="317.2" height="24.65" shape-rendering="crispEdges"/><rect fill="#272727" x="597.8" y="318.7" width="195.2" height="24.65" shape-rendering="crispEdges"/><rect fill="#272727" x="793" y="318.7" width="61" height="24.65" shape-rendering="crispEdges"/><rect fill="#272727" x="854" y="318.7" width="12.2" height="24.65" shape-rendering="crispEdges"/><rect fill="#272727" x="866.2" y="318.7" width="195.2" height="24.65" shape-rendering="crispEdges"/><rect fill="#272727" x="1061.4" y="318.7" width="73.2" height="24.65" shape-rendering="crispEdges"/><rect fill="#272727" x="1134.6" y="318.7" width="12.2" height="24.65" shape-rendering="crispEdges"/><rect fill="#272727" x="1146.8" y="318.7" width="0" height="24.65" shape-rendering="crispEdges"/><rect fill="#272727" x="0" y="343.1" width="12.2" height="24.65" shape-rendering="crispEdges"/><rect fill="#272727" x="12.2" y="343.1" width="61" height="24.65" shape-rendering="crispEdges"/><rect fill="#272727" x="73.2" y="343.1" width="524.6" height="24.65" shape-rendering="crispEdges"/><rect fill="#272727" x="597.8" y="343.1" width="183" height="24.65" shape-rendering="crispEdges"/><rect fill="#272727" x="780.8" y="343.1" width="73.2" height="24.65" shape-rendering="crispEdges"/><rect fill="#272727" x="854" y="343.1" width="12.2" height="24.65" shape-rendering="crispEdges"/><rect fill="#272727" x="866.2" y="343.1" width="280.6" height="24.65" shape-rendering="crispEdges"/><rect fill="#272727" x="1146.8" y="343.1" width="0" height="24.65" shape-rendering="crispEdges"/><rect fill="#121212" x="0" y="367.5" width="1146.8" height="24.65" shape-rendering="crispEdges"/><rect fill="#121212" x="0" y="391.9" width="1146.8" height="24.65" shape-rendering="crispEdges"/><rect fill="#242f38" x="0" y="416.3" width="36.6" height="24.65" shape-rendering="crispEdges"/><rect fill="#242f38" x="36.6" y="416.3" width="146.4" height="24.65" shape-rendering="crispEdges"/><rect fill="#242f38" x="183" y="416.3" width="817.4" height="24.65" shape-rendering="crispEdges"/><rect fill="#242f38" x="1000.4" y="416.3" width="12.2" height="24.65" shape-rendering="crispEdges"/><rect fill="#242f38" x="1012.6" y="416.3" width="24.4" height="24.65" shape-rendering="crispEdges"/><rect fill="#242f38" x="1037" y="416.3" width="97.6" height="24.65" shape-rendering="crispEdges"/><rect fill="#242f38" x="1134.6" y="416.3" width="12.2" height="24.65" shape-rendering="crispEdges"/>
    <g class="terminal-1540721784-matrix">
    <text class="terminal-1540721784-r2" x="12.2" y="20" textLength="12.2" clip-path="url(#terminal-1540721784-line-0)">M</text><text class="terminal-1540721784-r2" x="280.6" y="20" textLength="207.4" clip-path="url(#terminal-1540721784-line-0)">MUDUS&#160;view&#160;TUI&#160;—&#160;</text><text class="terminal-1540721784-r3" x="488" y="20" textLength="341.6" clip-path="url(#terminal-1540721784-line-0)">Multi-User&#160;system&#160;Disk&#160;USage</text><text class="terminal-1540721784-r1" x="1146.8" y="20" textLength="12.2" clip-path="url(#terminal-1540721784-line-0)">
</text><text class="terminal-1540721784-r2" x="0" y="44.4" textLength="341.6" clip-path="url(#terminal-1540721784-line-1)">Showing&#160;disk&#160;usage&#160;for&#160;user&#160;</text><text class="terminal-1540721784-r4" x="341.6" y="44.4" textLength="61" clip-path="url(#terminal-1540721784-line-1)">torla</text><text class="terminal-1540721784-r2" x="402.6" y="44.4" textLength="134.2" clip-path="url(#terminal-1540721784-line-1)">&#160;and&#160;group&#160;</text><text class="terminal-1540721784-r4" x="536.8" y="44.4" textLength="170.8" clip-path="url(#terminal-1540721784-line-1)">**ALL&#160;GROUPS**</text><text class="terminal-1540721784-r1" x="1146.8" y="44.4" textLength="12.2" clip-path="url(#terminal-1540721784-line-1)">
</text><text class="terminal-1540721784-r5" x="0" y="68.8" textLength="683.2" clip-path="url(#terminal-1540721784-line-2)">File&#160;system&#160;scan&#160;completed&#160;at&#160;2025-08-14T09:00:31.029863</text><text class="terminal-1540721784-r1" x="1146.8" y="68.8" textLength="12.2" clip-path="url(#terminal-1540721784-line-2)">
</text><text class="terminal-1540721784-r4" x="0" y="93.2" textLength="597.8" clip-path="url(#terminal-1540721784-line-3)">&#160;Directory&#160;&#160;&#160;&#160;&#160;&#160;&#160;&#160;&#160;&#160;&#160;&#160;&#160;&#160;&#160;&#160;&#160;&#160;&#160;&#160;&#160;&#160;&#160;&#160;&#160;&#160;&#160;&#160;&#160;&#160;&#160;&#160;&#160;&#160;&#160;&#160;&#160;&#160;&#160;</text><text class="terminal-1540721784-r4" x="597.8" y="93.2" textLength="268.4" clip-path="url(#terminal-1540721784-line-3)">&#160;Cumulative&#160;Size&#160;[GB]&#160;</text><text class="terminal-1540721784-r4" x="866.2" y="93.2" textLength="280.6" clip-path="url(#terminal-1540721784-line-3)">&#160;Cumulative&#160;Num.&#160;Files&#160;</text><text class="terminal-1540721784-r1" x="1146.8" y="93.2" textLength="12.2" clip-path="url(#terminal-1540721784-line-3)">
</text><text class="terminal-1540721784-r7" x="12.2" y="117.6" textLength="292.8" clip-path="url(#terminal-1540721784-line-4)">..&#160;&#160;&#160;&#160;(parent&#160;directory)</text><text class="terminal-1540721784-r7" x="793" y="117.6" textLength="61" clip-path="url(#terminal-1540721784-line-4)">26.97</text><text class="terminal-1540721784-r7" x="1061.4" y="117.6" textLength="73.2" clip-path="url(#terminal-1540721784-line-4)">19,097</text><text class="terminal-1540721784-r1" x="1146.8" y="117.6" textLength="12.2" clip-path="url(#terminal-1540721784-line-4)">
</text><text class="terminal-1540721784-r8" x="12.2" y="142" textLength="573.4" clip-path="url(#terminal-1540721784-line-5)">Runs4200_6hr_continuous_23kn_H112.5_Hs4.0_Tz5.5</text><text class="terminal-1540721784-r8" x="610" y="142" textLength="244" clip-path="url(#terminal-1540721784-line-5)">&#160;&#160;&#160;&#160;&#160;&#160;&#160;&#160;&#160;&#160;&#160;&#160;&#160;&#160;&#160;11.87</text><text class="terminal-1540721784-r8" x="878.4" y="142" textLength="256.2" clip-path="url(#terminal-1540721784-line-5)">&#160;&#160;&#160;&#160;&#160;&#160;&#160;&#160;&#160;&#160;&#160;&#160;&#160;&#160;&#160;&#160;4,271</text><text class="terminal-1540721784-r1" x="1146.8" y="142" textLength="12.2" clip-path="url(#terminal-1540721784-line-5)">
</text><text class="terminal-1540721784-r8" x="12.2" y="166.4" textLength="573.4" clip-path="url(#terminal-1540721784-line-6)">Runs5100_regular_production_27kn&#160;&#160;&#160;&#160;&#160;&#160;&#160;&#160;&#160;&#160;&#160;&#160;&#160;&#160;&#160;</text><text class="terminal-1540721784-r8" x="610" y="166.4" textLength="244" clip-path="url(#terminal-1540721784-line-6)">&#160;&#160;&#160;&#160;&#160;&#160;&#160;&#160;&#160;&#160;&#160;&#160;&#160;&#160;&#160;&#160;4.94</text><text class="terminal-1540721784-r8" x="878.4" y="166.4" textLength="256.2" clip-path="url(#terminal-1540721784-line-6)">&#160;&#160;&#160;&#160;&#160;&#160;&#160;&#160;&#160;&#160;&#160;&#160;&#160;&#160;&#160;&#160;6,030</text><text class="terminal-1540721784-r1" x="1146.8" y="166.4" textLength="12.2" clip-path="url(#terminal-1540721784-line-6)">
</text><text class="terminal-1540721784-r8" x="12.2" y="190.8" textLength="573.4" clip-path="url(#terminal-1540721784-line-7)">Runs6100_regular_production_30kn&#160;&#160;&#160;&#160;&#160;&#160;&#160;&#160;&#160;&#160;&#160;&#160;&#160;&#160;&#160;</text><text class="terminal-1540721784-r8" x="610" y="190.8" textLength="244" clip-path="url(#terminal-1540721784-line-7)">&#160;&#160;&#160;&#160;&#160;&#160;&#160;&#160;&#160;&#160;&#160;&#160;&#160;&#160;&#160;&#160;4.92</text><text class="terminal-1540721784-r8" x="878.4" y="190.8" textLength="256.2" clip-path="url(#terminal-1540721784-line-7)">&#160;&#160;&#160;&#160;&#160;&#160;&#160;&#160;&#160;&#160;&#160;&#160;&#160;&#160;&#160;&#160;6,030</text><text class="terminal-1540721784-r1" x="1146.8" y="190.8" textLength="12.2" clip-path="url(#terminal-1540721784-line-7)">
</text><text class="terminal-1540721784-r8" x="12.2" y="215.2" textLength="573.4" clip-path="url(#terminal-1540721784-line-8)">Runs4003_regular_linConst_ctrl&#160;&#160;&#160;&#160;&#160;&#160;&#160;&#160;&#160;&#160;&#160;&#160;&#160;&#160;&#160;&#160;&#160;</text><text class="terminal-1540721784-r8" x="610" y="215.2" textLength="244" clip-path="url(#terminal-1540721784-line-8)">&#160;&#160;&#160;&#160;&#160;&#160;&#160;&#160;&#160;&#160;&#160;&#160;&#160;&#160;&#160;&#160;2.94</text><text class="terminal-1540721784-r8" x="878.4" y="215.2" textLength="256.2" clip-path="url(#terminal-1540721784-line-8)">&#160;&#160;&#160;&#160;&#160;&#160;&#160;&#160;&#160;&#160;&#160;&#160;&#160;&#160;&#160;&#160;1,004</text><text class="terminal-1540721784-r1" x="1146.8" y="215.2" textLength="12.2" clip-path="url(#terminal-1540721784-line-8)">
</text><text class="terminal-1540721784-r8" x="12.2" y="239.6" textLength="573.4" clip-path="url(#terminal-1540721784-line-9)">Runs4100_regular_production_23kn&#160;&#160;&#160;&#160;&#160;&#160;&#160;&#160;&#160;&#160;&#160;&#160;&#160;&#160;&#160;</text><text class="terminal-1540721784-r8" x="610" y="239.6" textLength="244" clip-path="url(#terminal-1540721784-line-9)">&#160;&#160;&#160;&#160;&#160;&#160;&#160;&#160;&#160;&#160;&#160;&#160;&#160;&#160;&#160;&#160;2.30</text><text class="terminal-1540721784-r8" x="878.4" y="239.6" textLength="256.2" clip-path="url(#terminal-1540721784-line-9)">&#160;&#160;&#160;&#160;&#160;&#160;&#160;&#160;&#160;&#160;&#160;&#160;&#160;&#160;&#160;&#160;1,742</text><text class="terminal-1540721784-r1" x="1146.8" y="239.6" textLength="12.2" clip-path="url(#terminal-1540721784-line-9)">
</text><text class="terminal-1540721784-r8" x="12.2" y="264" textLength="573.4" clip-path="url(#terminal-1540721784-line-10)">Reporting&#160;&#160;&#160;&#160;&#160;&#160;&#160;&#160;&#160;&#160;&#160;&#160;&#160;&#160;&#160;&#160;&#160;&#160;&#160;&#160;&#160;&#160;&#160;&#160;&#160;&#160;&#160;&#160;&#160;&#160;&#160;&#160;&#160;&#160;&#160;&#160;&#160;&#160;</text><text class="terminal-1540721784-r8" x="610" y="264" textLength="244" clip-path="url(#terminal-1540721784-line-10)">&#160;&#160;&#160;&#160;&#160;&#160;&#160;&#160;&#160;&#160;&#160;&#160;&#160;&#160;&#160;&#160;0.00</text><text class="terminal-1540721784-r8" x="878.4" y="264" textLength="256.2" clip-path="url(#terminal-1540721784-line-10)">&#160;&#160;&#160;&#160;&#160;&#160;&#160;&#160;&#160;&#160;&#160;&#160;&#160;&#160;&#160;&#160;&#160;&#160;&#160;16</text><text class="terminal-1540721784-r1" x="1146.8" y="264" textLength="12.2" clip-path="url(#terminal-1540721784-line-10)">
</text><text class="terminal-1540721784-r8" x="12.2" y="288.4" textLength="573.4" clip-path="url(#terminal-1540721784-line-11)">Runs4002_regular_linSurgeSwayYaw&#160;&#160;&#160;&#160;&#160;&#160;&#160;&#160;&#160;&#160;&#160;&#160;&#160;&#160;&#160;</text><text class="terminal-1540721784-r8" x="610" y="288.4" textLength="244" clip-path="url(#terminal-1540721784-line-11)">&#160;&#160;&#160;&#160;&#160;&#160;&#160;&#160;&#160;&#160;&#160;&#160;&#160;&#160;&#160;&#160;0.00</text><text class="terminal-1540721784-r8" x="878.4" y="288.4" textLength="256.2" clip-path="url(#terminal-1540721784-line-11)">&#160;&#160;&#160;&#160;&#160;&#160;&#160;&#160;&#160;&#160;&#160;&#160;&#160;&#160;&#160;&#160;&#160;&#160;&#160;&#160;3</text><text class="terminal-1540721784-r1" x="1146.8" y="288.4" textLength="12.2" clip-path="url(#terminal-1540721784-line-11)">
</text><text class="terminal-1540721784-r9" x="12.2" y="312.8" textLength="219.6" clip-path="url(#terminal-1540721784-line-12)">TOTAL&#160;here&#160;(files)</text><text class="terminal-1540721784-r9" x="805.2" y="312.8" textLength="48.8" clip-path="url(#terminal-1540721784-line-12)">0.00</text><text class="terminal-1540721784-r9" x="1122.4" y="312.8" textLength="12.2" clip-path="url(#terminal-1540721784-line-12)">1</text><text class="terminal-1540721784-r1" x="1146.8" y="312.8" textLength="12.2" clip-path="url(#terminal-1540721784-line-12)">
</text><text class="terminal-1540721784-r9" x="12.2" y="337.2" textLength="268.4" clip-path="url(#terminal-1540721784-line-13)">TOTAL&#160;here&#160;(recursive)</text><text class="terminal-1540721784-r9" x="793" y="337.2" textLength="61" clip-path="url(#terminal-1540721784-line-13)">26.97</text><text class="terminal-1540721784-r9" x="1061.4" y="337.2" textLength="73.2" clip-path="url(#terminal-1540721784-line-13)">19,097</text><text class="terminal-1540721784-r1" x="1146.8" y="337.2" textLength="12.2" clip-path="url(#terminal-1540721784-line-13)">
</text><text class="terminal-1540721784-r9" x="12.2" y="361.6" textLength="61" clip-path="url(#terminal-1540721784-line-14)">TOTAL</text><text class="terminal-1540721784-r9" x="780.8" y="361.6" textLength="73.2" clip-path="url(#terminal-1540721784-line-14)">106.53</text><text class="terminal-1540721784-r1" x="1146.8" y="361.6" textLength="12.2" clip-path="url(#terminal-1540721784-line-14)">
</text><text class="terminal-1540721784-r1" x="1146.8" y="386" textLength="12.2" clip-path="url(#terminal-1540721784-line-15)">
</text><text class="terminal-1540721784-r1" x="1146.8" y="410.4" textLength="12.2" clip-path="url(#terminal-1540721784-line-16)">
</text><text class="terminal-1540721784-r10" x="0" y="434.8" textLength="36.6" clip-path="url(#terminal-1540721784-line-17)">&#160;q&#160;</text><text class="terminal-1540721784-r2" x="36.6" y="434.8" textLength="146.4" clip-path="url(#terminal-1540721784-line-17)">Close&#160;MUDUS&#160;</text><text class="terminal-1540721784-r11" x="1000.4" y="434.8" textLength="12.2" clip-path="url(#terminal-1540721784-line-17)">▏</text><text class="terminal-1540721784-r10" x="1012.6" y="434.8" textLength="24.4" clip-path="url(#terminal-1540721784-line-17)">^p</text><text class="terminal-1540721784-r2" x="1037" y="434.8" textLength="97.6" clip-path="url(#terminal-1540721784-line-17)">&#160;palette</text>
    </g>
    </g>
</svg>
