<svg id="alliance-auth-svg-sprite" width="0" height="0" display="none" xmlns="http://www.w3.org/2000/svg">
    <defs>
        <!-- Alliance Auth Logo -->
        <symbol id="aa-logo" xmlns="http://www.w3.org/2000/svg" viewBox="0 0 256 256">
            <g transform="translate(41.953499,36.607802)">
                <path style="display:inline;fill:#e14852;stroke-width:0.32" d="M 131.07236,159.67687 C 109.26615,147.02458 91.302022,136.55002 91.152067,136.40007 l -0.272649,-0.27265 23.786292,-13.82371 c 13.08247,-7.60304 23.9186,-13.82025 24.08029,-13.81602 l 0.294,0.008 15.93273,36.83413 c 8.763,20.25877 15.891,36.95054 15.84,37.09283 l -0.0927,0.25869 z" />
                <path style="display:inline;fill:#436195;stroke-width:0.32" d="m 1.28,182.46369 c 0,-0.16969 17.354495,-40.46543 38.565546,-89.546103 L 78.411088,3.68 C 79.919052,1.4903841 82.294641,0.02199886 86.08,0.01224344 89.865359,0.00248802 92.288,1.4677954 93.674477,3.5158445 l 21.668143,50.1206965 21.66814,50.120699 -0.26538,0.23285 C 136.59942,104.11816 106.528,121.61441 69.92,142.87065 33.312,164.12688 2.892,181.80046 2.32,182.14527 l -1.04,0.62693 z" />
            </g>
        </symbol>

        <!-- Loading Spinner -->
        <symbol id="aa-loading-spinner" xmlns="http://www.w3.org/2000/svg" stroke="currentColor" viewBox="0 0 24 24">
            <g>
                <circle cx="12" cy="12" r="10" fill="none" stroke-width="1" stroke-linecap="round">
                    <animate attributeName="stroke-dasharray" dur="1.5s" calcMode="spline" values="0 150;42 150;42 150;42 150" keyTimes="0;0.475;0.95;1" keySplines="0.42,0,0.58,1;0.42,0,0.58,1;0.42,0,0.58,1" repeatCount="indefinite" />
                    <animate attributeName="stroke-dashoffset" dur="1.5s" calcMode="spline" values="0;-16;-59;-59" keyTimes="0;0.475;0.95;1" keySplines="0.42,0,0.58,1;0.42,0,0.58,1;0.42,0,0.58,1" repeatCount="indefinite" />
                </circle>

                <animateTransform attributeName="transform" type="rotate" dur="2s" values="0 12 12;360 12 12" repeatCount="indefinite" />
            </g>
        </symbol>
    </defs>
</svg>
