<svg width="286" height="68" viewBox="0 0 286 68" fill="none" xmlns="http://www.w3.org/2000/svg">
<path d="M62.2161 37.8862C61.6561 35.4328 60.6161 33.6862 59.0961 32.6462C57.5761 31.6062 55.5895 31.0862 53.1361 31.0862C51.4028 31.0862 49.9095 31.4328 48.6561 32.1262C47.4028 32.8195 46.3628 33.7528 45.5361 34.9262C44.7361 36.0995 44.1361 37.4595 43.7361 39.0062C43.3628 40.5262 43.1761 42.1395 43.1761 43.8462C43.1761 45.4462 43.3361 47.0195 43.6561 48.5662C44.0028 50.1128 44.5628 51.4995 45.3361 52.7262C46.1095 53.9262 47.1495 54.8995 48.4561 55.6462C49.7628 56.3928 51.4028 56.7662 53.3761 56.7662C54.6028 56.7662 55.7228 56.5662 56.7361 56.1662C57.7495 55.7662 58.6295 55.2195 59.3761 54.5262C60.1495 53.8062 60.7895 52.9662 61.2961 52.0062C61.8295 51.0462 62.2295 49.9928 62.4961 48.8462H65.3361C65.0161 50.2328 64.5495 51.5528 63.9361 52.8062C63.3228 54.0328 62.5095 55.1128 61.4961 56.0462C60.5095 56.9795 59.2961 57.7262 57.8561 58.2862C56.4428 58.8195 54.7761 59.0862 52.8561 59.0862C50.6428 59.0862 48.7495 58.6862 47.1761 57.8862C45.6028 57.0595 44.3095 55.9528 43.2961 54.5662C42.3095 53.1795 41.5895 51.5795 41.1361 49.7662C40.6828 47.9262 40.4561 45.9795 40.4561 43.9262C40.4561 41.1795 40.7895 38.8462 41.4561 36.9262C42.1495 35.0062 43.0961 33.4462 44.2961 32.2462C45.4961 31.0195 46.9095 30.1395 48.5361 29.6062C50.1628 29.0462 51.9361 28.7662 53.8561 28.7662C55.3228 28.7662 56.6828 28.9662 57.9361 29.3662C59.2161 29.7395 60.3361 30.3128 61.2961 31.0862C62.2828 31.8595 63.0828 32.8195 63.6961 33.9662C64.3361 35.0862 64.7761 36.3928 65.0161 37.8862H62.2161ZM78.5233 58.8862C77.19 58.8595 75.9367 58.6195 74.7633 58.1662C73.6167 57.7128 72.6033 57.0328 71.7233 56.1262C70.87 55.2195 70.19 54.0862 69.6833 52.7262C69.1767 51.3662 68.9233 49.7795 68.9233 47.9662C68.9233 46.4462 69.1233 45.0328 69.5233 43.7262C69.9233 42.3928 70.5233 41.2328 71.3233 40.2462C72.1233 39.2595 73.1233 38.4862 74.3233 37.9262C75.5233 37.3395 76.9233 37.0462 78.5233 37.0462C80.15 37.0462 81.5633 37.3395 82.7633 37.9262C83.9633 38.4862 84.9633 39.2595 85.7633 40.2462C86.5633 41.2062 87.15 42.3528 87.5233 43.6862C87.9233 45.0195 88.1233 46.4462 88.1233 47.9662C88.1233 49.6195 87.8967 51.1128 87.4433 52.4462C86.99 53.7795 86.3367 54.9262 85.4833 55.8862C84.6567 56.8462 83.6433 57.5928 82.4433 58.1262C81.27 58.6328 79.9633 58.8862 78.5233 58.8862ZM85.5633 47.9662C85.5633 46.7395 85.43 45.5928 85.1633 44.5262C84.8967 43.4595 84.4833 42.5395 83.9233 41.7662C83.3633 40.9662 82.6433 40.3395 81.7633 39.8862C80.8833 39.4328 79.8033 39.2062 78.5233 39.2062C77.27 39.2062 76.19 39.4595 75.2833 39.9662C74.4033 40.4462 73.6833 41.0995 73.1233 41.9262C72.5633 42.7262 72.15 43.6595 71.8833 44.7262C71.6167 45.7662 71.4833 46.8462 71.4833 47.9662C71.4833 49.2462 71.63 50.4328 71.9233 51.5262C72.2433 52.5928 72.6967 53.5128 73.2833 54.2862C73.87 55.0595 74.6033 55.6595 75.4833 56.0862C76.3633 56.5128 77.3767 56.7262 78.5233 56.7262C79.7767 56.7262 80.8433 56.4862 81.7233 56.0062C82.63 55.4995 83.3633 54.8328 83.9233 54.0062C84.4833 53.1795 84.8967 52.2462 85.1633 51.2062C85.43 50.1662 85.5633 49.0862 85.5633 47.9662ZM95.1899 48.0462C95.1899 49.2195 95.3499 50.3395 95.6699 51.4062C95.9899 52.4462 96.4432 53.3662 97.0299 54.1662C97.6432 54.9395 98.3765 55.5662 99.2299 56.0462C100.11 56.4995 101.097 56.7262 102.19 56.7262C103.417 56.7262 104.483 56.4862 105.39 56.0062C106.323 55.4995 107.083 54.8195 107.67 53.9662C108.257 53.1128 108.683 52.1262 108.95 51.0062C109.217 49.8595 109.323 48.6328 109.27 47.3262C109.27 46.0195 109.083 44.8728 108.71 43.8862C108.363 42.8728 107.87 42.0195 107.23 41.3262C106.59 40.6328 105.843 40.1128 104.99 39.7662C104.137 39.3928 103.203 39.2062 102.19 39.2062C101.07 39.2062 100.07 39.4328 99.1899 39.8862C98.3099 40.3395 97.5766 40.9662 96.9899 41.7662C96.4032 42.5395 95.9499 43.4728 95.6299 44.5662C95.3365 45.6328 95.1899 46.7928 95.1899 48.0462ZM95.1899 66.4862H92.7899V37.6062H95.1899V41.2462H95.2699C95.6165 40.5795 96.0565 39.9795 96.5899 39.4462C97.1499 38.9128 97.7499 38.4728 98.3899 38.1262C99.0566 37.7795 99.7366 37.5128 100.43 37.3262C101.123 37.1395 101.803 37.0462 102.47 37.0462C104.15 37.0462 105.577 37.3262 106.75 37.8862C107.923 38.4462 108.883 39.2195 109.63 40.2062C110.403 41.1662 110.963 42.3128 111.31 43.6462C111.657 44.9795 111.83 46.4062 111.83 47.9262C111.83 49.3662 111.643 50.7528 111.27 52.0862C110.897 53.4195 110.323 54.5928 109.55 55.6062C108.803 56.5928 107.843 57.3928 106.67 58.0062C105.523 58.5928 104.163 58.8862 102.59 58.8862C101.123 58.8862 99.7099 58.5662 98.3499 57.9262C97.0165 57.2595 95.9632 56.2862 95.1899 55.0062V66.4862ZM131.963 46.5262C131.963 45.5128 131.816 44.5662 131.523 43.6862C131.256 42.7795 130.843 42.0062 130.283 41.3662C129.75 40.6995 129.07 40.1795 128.243 39.8062C127.416 39.4062 126.47 39.2062 125.403 39.2062C124.336 39.2062 123.39 39.4062 122.563 39.8062C121.763 40.2062 121.07 40.7395 120.483 41.4062C119.923 42.0728 119.47 42.8462 119.123 43.7262C118.776 44.6062 118.55 45.5395 118.443 46.5262H131.963ZM118.443 48.5262C118.443 49.6462 118.59 50.7128 118.883 51.7262C119.176 52.7128 119.603 53.5795 120.163 54.3262C120.75 55.0462 121.483 55.6328 122.363 56.0862C123.243 56.5128 124.256 56.7262 125.403 56.7262C126.976 56.7262 128.323 56.3128 129.443 55.4862C130.563 54.6595 131.31 53.4862 131.683 51.9662H134.363C134.07 52.9528 133.683 53.8728 133.203 54.7262C132.723 55.5528 132.123 56.2862 131.403 56.9262C130.683 57.5395 129.83 58.0195 128.843 58.3662C127.856 58.7128 126.71 58.8862 125.403 58.8862C123.75 58.8862 122.323 58.6062 121.123 58.0462C119.923 57.4862 118.936 56.7262 118.163 55.7662C117.39 54.7795 116.816 53.6328 116.443 52.3262C116.07 50.9928 115.883 49.5662 115.883 48.0462C115.883 46.5262 116.096 45.0995 116.523 43.7662C116.976 42.4328 117.603 41.2728 118.403 40.2862C119.23 39.2728 120.23 38.4862 121.403 37.9262C122.576 37.3395 123.91 37.0462 125.403 37.0462C128.256 37.0462 130.496 38.0328 132.123 40.0062C133.75 41.9528 134.55 44.7928 134.523 48.5262H118.443ZM141.87 48.0462C141.87 49.2195 142.03 50.3395 142.35 51.4062C142.67 52.4462 143.123 53.3662 143.71 54.1662C144.323 54.9395 145.056 55.5662 145.91 56.0462C146.79 56.4995 147.776 56.7262 148.87 56.7262C150.096 56.7262 151.163 56.4862 152.07 56.0062C153.003 55.4995 153.763 54.8195 154.35 53.9662C154.936 53.1128 155.363 52.1262 155.63 51.0062C155.896 49.8595 156.003 48.6328 155.95 47.3262C155.95 46.0195 155.763 44.8728 155.39 43.8862C155.043 42.8728 154.55 42.0195 153.91 41.3262C153.27 40.6328 152.523 40.1128 151.67 39.7662C150.816 39.3928 149.883 39.2062 148.87 39.2062C147.75 39.2062 146.75 39.4328 145.87 39.8862C144.99 40.3395 144.256 40.9662 143.67 41.7662C143.083 42.5395 142.63 43.4728 142.31 44.5662C142.016 45.6328 141.87 46.7928 141.87 48.0462ZM141.87 66.4862H139.47V37.6062H141.87V41.2462H141.95C142.296 40.5795 142.736 39.9795 143.27 39.4462C143.83 38.9128 144.43 38.4728 145.07 38.1262C145.736 37.7795 146.416 37.5128 147.11 37.3262C147.803 37.1395 148.483 37.0462 149.15 37.0462C150.83 37.0462 152.256 37.3262 153.43 37.8862C154.603 38.4462 155.563 39.2195 156.31 40.2062C157.083 41.1662 157.643 42.3128 157.99 43.6462C158.336 44.9795 158.51 46.4062 158.51 47.9262C158.51 49.3662 158.323 50.7528 157.95 52.0862C157.576 53.4195 157.003 54.5928 156.23 55.6062C155.483 56.5928 154.523 57.3928 153.35 58.0062C152.203 58.5928 150.843 58.8862 149.27 58.8862C147.803 58.8862 146.39 58.5662 145.03 57.9262C143.696 57.2595 142.643 56.2862 141.87 55.0062V66.4862ZM171.883 58.8862C170.549 58.8595 169.296 58.6195 168.123 58.1662C166.976 57.7128 165.963 57.0328 165.083 56.1262C164.229 55.2195 163.549 54.0862 163.043 52.7262C162.536 51.3662 162.283 49.7795 162.283 47.9662C162.283 46.4462 162.483 45.0328 162.883 43.7262C163.283 42.3928 163.883 41.2328 164.683 40.2462C165.483 39.2595 166.483 38.4862 167.683 37.9262C168.883 37.3395 170.283 37.0462 171.883 37.0462C173.509 37.0462 174.923 37.3395 176.123 37.9262C177.323 38.4862 178.323 39.2595 179.123 40.2462C179.923 41.2062 180.509 42.3528 180.883 43.6862C181.283 45.0195 181.483 46.4462 181.483 47.9662C181.483 49.6195 181.256 51.1128 180.803 52.4462C180.349 53.7795 179.696 54.9262 178.843 55.8862C178.016 56.8462 177.003 57.5928 175.803 58.1262C174.629 58.6328 173.323 58.8862 171.883 58.8862ZM178.923 47.9662C178.923 46.7395 178.789 45.5928 178.523 44.5262C178.256 43.4595 177.843 42.5395 177.283 41.7662C176.723 40.9662 176.003 40.3395 175.123 39.8862C174.243 39.4328 173.163 39.2062 171.883 39.2062C170.629 39.2062 169.549 39.4595 168.643 39.9662C167.763 40.4462 167.043 41.0995 166.483 41.9262C165.923 42.7262 165.509 43.6595 165.243 44.7262C164.976 45.7662 164.843 46.8462 164.843 47.9662C164.843 49.2462 164.989 50.4328 165.283 51.5262C165.603 52.5928 166.056 53.5128 166.643 54.2862C167.229 55.0595 167.963 55.6595 168.843 56.0862C169.723 56.5128 170.736 56.7262 171.883 56.7262C173.136 56.7262 174.203 56.4862 175.083 56.0062C175.989 55.4995 176.723 54.8328 177.283 54.0062C177.843 53.1795 178.256 52.2462 178.523 51.2062C178.789 50.1662 178.923 49.0862 178.923 47.9662ZM201.869 47.8862C201.869 46.7128 201.709 45.6062 201.389 44.5662C201.069 43.4995 200.603 42.5795 199.989 41.8062C199.403 41.0062 198.669 40.3795 197.789 39.9262C196.936 39.4462 195.963 39.2062 194.869 39.2062C193.616 39.2062 192.536 39.4595 191.629 39.9662C190.723 40.4462 189.976 41.1128 189.389 41.9662C188.803 42.8195 188.376 43.8195 188.109 44.9662C187.843 46.0862 187.736 47.2995 187.789 48.6062C187.789 49.9128 187.963 51.0728 188.309 52.0862C188.683 53.0728 189.189 53.9128 189.829 54.6062C190.469 55.2995 191.216 55.8328 192.069 56.2062C192.923 56.5528 193.856 56.7262 194.869 56.7262C195.989 56.7262 196.989 56.4995 197.869 56.0462C198.749 55.5928 199.483 54.9795 200.069 54.2062C200.656 53.4062 201.096 52.4728 201.389 51.4062C201.709 50.3128 201.869 49.1395 201.869 47.8862ZM201.869 29.5262H204.269V58.3262H201.869V54.6862H201.789C201.443 55.3795 200.989 55.9928 200.429 56.5262C199.896 57.0328 199.296 57.4595 198.629 57.8062C197.989 58.1528 197.323 58.4195 196.629 58.6062C195.936 58.7928 195.256 58.8862 194.589 58.8862C192.909 58.8862 191.483 58.6062 190.309 58.0462C189.136 57.4862 188.163 56.7262 187.389 55.7662C186.643 54.7795 186.096 53.6195 185.749 52.2862C185.403 50.9528 185.229 49.5262 185.229 48.0062C185.229 46.5662 185.416 45.1795 185.789 43.8462C186.163 42.5128 186.723 41.3528 187.469 40.3662C188.243 39.3528 189.203 38.5528 190.349 37.9662C191.523 37.3528 192.896 37.0462 194.469 37.0462C195.936 37.0462 197.336 37.3795 198.669 38.0462C200.029 38.6862 201.096 39.6462 201.869 40.9262V29.5262ZM208.082 29.5262H229.042V31.8462H219.922V58.3262H217.202V31.8462H208.082V29.5262ZM253.349 37.8862C252.789 35.4328 251.749 33.6862 250.229 32.6462C248.709 31.6062 246.722 31.0862 244.269 31.0862C242.536 31.0862 241.042 31.4328 239.789 32.1262C238.536 32.8195 237.496 33.7528 236.669 34.9262C235.869 36.0995 235.269 37.4595 234.869 39.0062C234.496 40.5262 234.309 42.1395 234.309 43.8462C234.309 45.4462 234.469 47.0195 234.789 48.5662C235.136 50.1128 235.696 51.4995 236.469 52.7262C237.242 53.9262 238.282 54.8995 239.589 55.6462C240.896 56.3928 242.536 56.7662 244.509 56.7662C245.736 56.7662 246.856 56.5662 247.869 56.1662C248.882 55.7662 249.762 55.2195 250.509 54.5262C251.282 53.8062 251.922 52.9662 252.429 52.0062C252.962 51.0462 253.362 49.9928 253.629 48.8462H256.469C256.149 50.2328 255.682 51.5528 255.069 52.8062C254.456 54.0328 253.642 55.1128 252.629 56.0462C251.642 56.9795 250.429 57.7262 248.989 58.2862C247.576 58.8195 245.909 59.0862 243.989 59.0862C241.776 59.0862 239.882 58.6862 238.309 57.8862C236.736 57.0595 235.442 55.9528 234.429 54.5662C233.442 53.1795 232.722 51.5795 232.269 49.7662C231.816 47.9262 231.589 45.9795 231.589 43.9262C231.589 41.1795 231.922 38.8462 232.589 36.9262C233.282 35.0062 234.229 33.4462 235.429 32.2462C236.629 31.0195 238.042 30.1395 239.669 29.6062C241.296 29.0462 243.069 28.7662 244.989 28.7662C246.456 28.7662 247.816 28.9662 249.069 29.3662C250.349 29.7395 251.469 30.3128 252.429 31.0862C253.416 31.8595 254.216 32.8195 254.829 33.9662C255.469 35.0862 255.909 36.3928 256.149 37.8862H253.349ZM272.936 42.9262C273.949 42.9262 274.883 42.8195 275.736 42.6062C276.616 42.3928 277.376 42.0595 278.016 41.6062C278.656 41.1262 279.163 40.5262 279.536 39.8062C279.909 39.0862 280.096 38.2195 280.096 37.2062C280.096 36.1395 279.896 35.2595 279.496 34.5662C279.123 33.8728 278.603 33.3262 277.936 32.9262C277.296 32.5262 276.549 32.2462 275.696 32.0862C274.869 31.9262 274.003 31.8462 273.096 31.8462H264.456V42.9262H272.936ZM264.456 45.2462V58.3262H261.736V29.5262H273.016C276.189 29.5262 278.616 30.1262 280.296 31.3262C281.976 32.4995 282.816 34.4195 282.816 37.0862C282.816 38.8995 282.443 40.3395 281.696 41.4062C280.976 42.4728 279.789 43.3795 278.136 44.1262C278.989 44.4195 279.656 44.8462 280.136 45.4062C280.616 45.9662 280.976 46.6062 281.216 47.3262C281.456 48.0462 281.603 48.8062 281.656 49.6062C281.736 50.4062 281.789 51.1795 281.816 51.9262C281.843 53.0195 281.883 53.9262 281.936 54.6462C282.016 55.3662 282.096 55.9528 282.176 56.4062C282.283 56.8595 282.403 57.2195 282.536 57.4862C282.669 57.7262 282.829 57.9128 283.016 58.0462V58.3262H280.016C279.723 57.8462 279.509 57.1795 279.376 56.3262C279.269 55.4728 279.176 54.5795 279.096 53.6462C279.043 52.7128 278.989 51.8062 278.936 50.9262C278.909 50.0462 278.843 49.3262 278.736 48.7662C278.576 47.9928 278.309 47.3795 277.936 46.9262C277.589 46.4462 277.163 46.0862 276.656 45.8462C276.149 45.6062 275.576 45.4462 274.936 45.3662C274.323 45.2862 273.683 45.2462 273.016 45.2462H264.456Z" fill="#015396"/>
<path d="M27.6028 48.7754V58.6613" stroke="#015396" stroke-miterlimit="10"/>
<path d="M27.2382 46.019C27.4946 46.724 27.787 47.7014 27.9713 48.4744C28.1515 49.2195 28.0594 49.3717 28.0634 49.3717C28.0634 49.3717 28.0514 49.3797 28.0233 49.3837C28.0033 49.3877 27.9833 49.3917 27.9673 49.3917C27.8511 49.3917 27.6708 49.1394 27.5347 48.5786C27.3824 47.9417 27.2663 46.8361 27.2342 46.019M27.0099 44.7853C27.0099 44.7853 26.9979 44.7853 26.9939 44.7853C26.6574 44.8654 26.8938 47.6333 27.1421 48.6707C27.3544 49.556 27.6668 49.7883 27.9633 49.7883C28.0153 49.7883 28.0634 49.7803 28.1115 49.7683C28.4479 49.6881 28.6042 49.4118 28.3558 48.3743C28.1115 47.3569 27.3504 44.7812 27.0099 44.7812V44.7853Z" fill="#015396"/>
<path d="M30.8313 53.1974L28.2717 48.9033" stroke="#015396" stroke-miterlimit="10"/>
<path d="M28.2397 49.5244L30.6871 55.8974" stroke="#015396" stroke-miterlimit="10"/>
<path d="M27.9312 49.5479L29.4654 58.3282" stroke="#015396" stroke-miterlimit="10"/>
<path d="M24.9471 48.7754V58.6613" stroke="#015396" stroke-miterlimit="10"/>
<path d="M25.3116 46.0189C25.2836 46.836 25.1634 47.9416 25.0112 48.5785C24.875 49.1393 24.6987 49.3916 24.5786 49.3916C24.5625 49.3916 24.5425 49.3916 24.5225 49.3836C24.5025 49.3796 24.4904 49.3756 24.4864 49.3756C24.4744 49.3516 24.4023 49.1753 24.5706 48.4743C24.7548 47.7053 25.0512 46.7239 25.3036 46.0189M25.5279 44.7852C25.1834 44.7852 24.4264 47.3608 24.182 48.3782C23.9337 49.4117 24.0899 49.6921 24.4264 49.7722C24.4744 49.7842 24.5265 49.7922 24.5746 49.7922C24.871 49.7922 25.1834 49.5559 25.3957 48.6746C25.6441 47.6412 25.8804 44.8693 25.5439 44.7892C25.5399 44.7892 25.5319 44.7892 25.5279 44.7892V44.7852Z" fill="#015396"/>
<path d="M24.3102 49.5244L21.8628 55.8974" stroke="#015396" stroke-miterlimit="10"/>
<path d="M24.6186 49.5479L23.0845 58.3282" stroke="#015396" stroke-miterlimit="10"/>
<path d="M28.1076 38.1877C28.1076 36.4933 26.277 36.5294 26.277 36.5294C26.277 36.5294 24.4464 36.4933 24.4464 38.1877C24.4464 39.3774 25.0272 47.0882 25.4678 47.1563H27.0901C27.5307 47.0842 28.1116 39.3774 28.1116 38.1877H28.1076Z" stroke="#015396" stroke-miterlimit="10"/>
<path d="M26.2729 3.14258C23.6853 3.14258 20.641 7.94533 20.641 20.8795C20.641 27.9374 21.358 34.6589 23.2286 37.4227C23.9336 38.4642 25.5679 38.336 26.2769 38.336C26.9859 38.336 28.6202 38.4642 29.3252 37.4227C31.1958 34.6589 31.9128 27.9374 31.9128 20.8795C31.9128 7.94132 28.8645 3.14258 26.2809 3.14258H26.2729Z" stroke="#015396" stroke-miterlimit="10"/>
<path d="M21.7185 53.1975L27.6589 44.2529L24.5785 40.6238L27.1341 36.7344" stroke="#FFA500" stroke-width="2" stroke-miterlimit="1"/>
<path d="M26.2729 38.188L23.4529 33.4093V29.8242L20.7892 26.1791L26.2729 22.582L23.4089 19.025V15.4H20.8493L23.473 11.8029V8.20184L24.3422 4.16016" stroke="#015396" stroke-miterlimit="1"/>
<path d="M31.4401 29.8242H21.1096" stroke="#015396" stroke-miterlimit="1"/>
<path d="M31.4401 26.0635H21.1096" stroke="#015396" stroke-miterlimit="1"/>
<path d="M31.8969 22.3018H20.649" stroke="#015396" stroke-miterlimit="1"/>
<path d="M31.8969 19.0137H20.649" stroke="#015396" stroke-miterlimit="1"/>
<path d="M31.8969 15.3887H20.649" stroke="#015396" stroke-miterlimit="1"/>
<path d="M31.324 11.7598H21.2258" stroke="#015396" stroke-miterlimit="1"/>
<path d="M30.4307 8.23047H22.119" stroke="#015396" stroke-miterlimit="1"/>
<path d="M30.7873 33.5859H21.7626" stroke="#015396" stroke-miterlimit="1"/>
<path d="M26.2729 38.188L29.0969 33.4093V29.8242L31.7607 26.1791L26.2729 22.582L29.141 19.025V15.4H31.7006L29.0769 11.8029V8.20184L28.2077 4.16016" stroke="#FFA500" stroke-width="2" stroke-miterlimit="1"/>
<path d="M28.2076 4.25658C28.2076 4.25658 28.9327 1 32.9623 1H52.65" stroke="#FFA500" stroke-width="2" stroke-miterlimit="1"/>
<path d="M24.4423 4.25658C24.4423 4.25658 23.7173 1 19.6877 1H0" stroke="#015396" stroke-miterlimit="10"/>
</svg>
