<svg class="rich-terminal" viewBox="0 0 872 708.8" xmlns="http://www.w3.org/2000/svg">
    <!-- Generated with Rich https://www.textualize.io -->
    <style>

    @font-face {
        font-family: "Fira Code";
        src: local("FiraCode-Regular"),
                url("https://cdnjs.cloudflare.com/ajax/libs/firacode/6.2.0/woff2/FiraCode-Regular.woff2") format("woff2"),
                url("https://cdnjs.cloudflare.com/ajax/libs/firacode/6.2.0/woff/FiraCode-Regular.woff") format("woff");
        font-style: normal;
        font-weight: 400;
    }
    @font-face {
        font-family: "Fira Code";
        src: local("FiraCode-Bold"),
                url("https://cdnjs.cloudflare.com/ajax/libs/firacode/6.2.0/woff2/FiraCode-Bold.woff2") format("woff2"),
                url("https://cdnjs.cloudflare.com/ajax/libs/firacode/6.2.0/woff/FiraCode-Bold.woff") format("woff");
        font-style: bold;
        font-weight: 700;
    }

    .terminal-3566283003-matrix {
        font-family: Fira Code, monospace;
        font-size: 20px;
        line-height: 24.4px;
        font-variant-east-asian: full-width;
    }

    .terminal-3566283003-title {
        font-size: 18px;
        font-weight: bold;
        font-family: arial;
    }

    .terminal-3566283003-r1 { fill: #c5c8c6 }
.terminal-3566283003-r2 { fill: #e0e0e0 }
.terminal-3566283003-r3 { fill: #a0a3a6 }
.terminal-3566283003-r4 { fill: #0178d4;font-weight: bold }
.terminal-3566283003-r5 { fill: #6db2ff }
.terminal-3566283003-r6 { fill: #ffcf56 }
.terminal-3566283003-r7 { fill: #0c7dd4;font-weight: bold }
.terminal-3566283003-r8 { fill: #211505;font-weight: bold }
.terminal-3566283003-r9 { fill: #004295 }
.terminal-3566283003-r10 { fill: #b86b00 }
.terminal-3566283003-r11 { fill: #ffa62b;font-weight: bold }
.terminal-3566283003-r12 { fill: #495259 }
    </style>

    <defs>
    <clipPath id="terminal-3566283003-clip-terminal">
      <rect x="0" y="0" width="853.0" height="657.8" />
    </clipPath>
    <clipPath id="terminal-3566283003-line-0">
    <rect x="0" y="1.5" width="854" height="24.65"/>
            </clipPath>
<clipPath id="terminal-3566283003-line-1">
    <rect x="0" y="25.9" width="854" height="24.65"/>
            </clipPath>
<clipPath id="terminal-3566283003-line-2">
    <rect x="0" y="50.3" width="854" height="24.65"/>
            </clipPath>
<clipPath id="terminal-3566283003-line-3">
    <rect x="0" y="74.7" width="854" height="24.65"/>
            </clipPath>
<clipPath id="terminal-3566283003-line-4">
    <rect x="0" y="99.1" width="854" height="24.65"/>
            </clipPath>
<clipPath id="terminal-3566283003-line-5">
    <rect x="0" y="123.5" width="854" height="24.65"/>
            </clipPath>
<clipPath id="terminal-3566283003-line-6">
    <rect x="0" y="147.9" width="854" height="24.65"/>
            </clipPath>
<clipPath id="terminal-3566283003-line-7">
    <rect x="0" y="172.3" width="854" height="24.65"/>
            </clipPath>
<clipPath id="terminal-3566283003-line-8">
    <rect x="0" y="196.7" width="854" height="24.65"/>
            </clipPath>
<clipPath id="terminal-3566283003-line-9">
    <rect x="0" y="221.1" width="854" height="24.65"/>
            </clipPath>
<clipPath id="terminal-3566283003-line-10">
    <rect x="0" y="245.5" width="854" height="24.65"/>
            </clipPath>
<clipPath id="terminal-3566283003-line-11">
    <rect x="0" y="269.9" width="854" height="24.65"/>
            </clipPath>
<clipPath id="terminal-3566283003-line-12">
    <rect x="0" y="294.3" width="854" height="24.65"/>
            </clipPath>
<clipPath id="terminal-3566283003-line-13">
    <rect x="0" y="318.7" width="854" height="24.65"/>
            </clipPath>
<clipPath id="terminal-3566283003-line-14">
    <rect x="0" y="343.1" width="854" height="24.65"/>
            </clipPath>
<clipPath id="terminal-3566283003-line-15">
    <rect x="0" y="367.5" width="854" height="24.65"/>
            </clipPath>
<clipPath id="terminal-3566283003-line-16">
    <rect x="0" y="391.9" width="854" height="24.65"/>
            </clipPath>
<clipPath id="terminal-3566283003-line-17">
    <rect x="0" y="416.3" width="854" height="24.65"/>
            </clipPath>
<clipPath id="terminal-3566283003-line-18">
    <rect x="0" y="440.7" width="854" height="24.65"/>
            </clipPath>
<clipPath id="terminal-3566283003-line-19">
    <rect x="0" y="465.1" width="854" height="24.65"/>
            </clipPath>
<clipPath id="terminal-3566283003-line-20">
    <rect x="0" y="489.5" width="854" height="24.65"/>
            </clipPath>
<clipPath id="terminal-3566283003-line-21">
    <rect x="0" y="513.9" width="854" height="24.65"/>
            </clipPath>
<clipPath id="terminal-3566283003-line-22">
    <rect x="0" y="538.3" width="854" height="24.65"/>
            </clipPath>
<clipPath id="terminal-3566283003-line-23">
    <rect x="0" y="562.7" width="854" height="24.65"/>
            </clipPath>
<clipPath id="terminal-3566283003-line-24">
    <rect x="0" y="587.1" width="854" height="24.65"/>
            </clipPath>
<clipPath id="terminal-3566283003-line-25">
    <rect x="0" y="611.5" width="854" height="24.65"/>
            </clipPath>
    </defs>

    <rect fill="#292929" stroke="rgba(255,255,255,0.35)" stroke-width="1" x="1" y="1" width="870" height="706.8" rx="8"/><text class="terminal-3566283003-title" fill="#c5c8c6" text-anchor="middle" x="435" y="27">MudusScanApp</text>
            <g transform="translate(26,22)">
            <circle cx="0" cy="0" r="7" fill="#ff5f57"/>
            <circle cx="22" cy="0" r="7" fill="#febc2e"/>
            <circle cx="44" cy="0" r="7" fill="#28c840"/>
            </g>
        
    <g transform="translate(9, 41)" clip-path="url(#terminal-3566283003-clip-terminal)">
    <rect fill="#242f38" x="0" y="1.5" width="12.2" height="24.65" shape-rendering="crispEdges"/><rect fill="#242f38" x="12.2" y="1.5" width="12.2" height="24.65" shape-rendering="crispEdges"/><rect fill="#242f38" x="24.4" y="1.5" width="61" height="24.65" shape-rendering="crispEdges"/><rect fill="#242f38" x="85.4" y="1.5" width="12.2" height="24.65" shape-rendering="crispEdges"/><rect fill="#242f38" x="97.6" y="1.5" width="36.6" height="24.65" shape-rendering="crispEdges"/><rect fill="#242f38" x="134.2" y="1.5" width="207.4" height="24.65" shape-rendering="crispEdges"/><rect fill="#242f38" x="341.6" y="1.5" width="341.6" height="24.65" shape-rendering="crispEdges"/><rect fill="#242f38" x="683.2" y="1.5" width="48.8" height="24.65" shape-rendering="crispEdges"/><rect fill="#242f38" x="732" y="1.5" width="12.2" height="24.65" shape-rendering="crispEdges"/><rect fill="#242f38" x="744.2" y="1.5" width="0" height="24.65" shape-rendering="crispEdges"/><rect fill="#242f38" x="744.2" y="1.5" width="97.6" height="24.65" shape-rendering="crispEdges"/><rect fill="#242f38" x="841.8" y="1.5" width="12.2" height="24.65" shape-rendering="crispEdges"/><rect fill="#121212" x="0" y="25.9" width="854" height="24.65" shape-rendering="crispEdges"/><rect fill="#121212" x="0" y="50.3" width="854" height="24.65" shape-rendering="crispEdges"/><rect fill="#121212" x="0" y="74.7" width="97.6" height="24.65" shape-rendering="crispEdges"/><rect fill="#121212" x="97.6" y="74.7" width="658.8" height="24.65" shape-rendering="crispEdges"/><rect fill="#121212" x="756.4" y="74.7" width="97.6" height="24.65" shape-rendering="crispEdges"/><rect fill="#121212" x="0" y="99.1" width="97.6" height="24.65" shape-rendering="crispEdges"/><rect fill="#242f38" x="97.6" y="99.1" width="524.6" height="24.65" shape-rendering="crispEdges"/><rect fill="#121212" x="622.2" y="99.1" width="134.2" height="24.65" shape-rendering="crispEdges"/><rect fill="#121212" x="756.4" y="99.1" width="97.6" height="24.65" shape-rendering="crispEdges"/><rect fill="#121212" x="0" y="123.5" width="97.6" height="24.65" shape-rendering="crispEdges"/><rect fill="#242f38" x="97.6" y="123.5" width="12.2" height="24.65" shape-rendering="crispEdges"/><rect fill="#242f38" x="109.8" y="123.5" width="97.6" height="24.65" shape-rendering="crispEdges"/><rect fill="#242f38" x="207.4" y="123.5" width="305" height="24.65" shape-rendering="crispEdges"/><rect fill="#242f38" x="512.4" y="123.5" width="97.6" height="24.65" shape-rendering="crispEdges"/><rect fill="#242f38" x="610" y="123.5" width="12.2" height="24.65" shape-rendering="crispEdges"/><rect fill="#121212" x="622.2" y="123.5" width="134.2" height="24.65" shape-rendering="crispEdges"/><rect fill="#121212" x="756.4" y="123.5" width="97.6" height="24.65" shape-rendering="crispEdges"/><rect fill="#121212" x="0" y="147.9" width="97.6" height="24.65" shape-rendering="crispEdges"/><rect fill="#242f38" x="97.6" y="147.9" width="524.6" height="24.65" shape-rendering="crispEdges"/><rect fill="#121212" x="622.2" y="147.9" width="134.2" height="24.65" shape-rendering="crispEdges"/><rect fill="#121212" x="756.4" y="147.9" width="97.6" height="24.65" shape-rendering="crispEdges"/><rect fill="#121212" x="0" y="172.3" width="97.6" height="24.65" shape-rendering="crispEdges"/><rect fill="#121212" x="97.6" y="172.3" width="658.8" height="24.65" shape-rendering="crispEdges"/><rect fill="#121212" x="756.4" y="172.3" width="97.6" height="24.65" shape-rendering="crispEdges"/><rect fill="#121212" x="0" y="196.7" width="97.6" height="24.65" shape-rendering="crispEdges"/><rect fill="#121212" x="97.6" y="196.7" width="390.4" height="24.65" shape-rendering="crispEdges"/><rect fill="#121212" x="488" y="196.7" width="268.4" height="24.65" shape-rendering="crispEdges"/><rect fill="#121212" x="756.4" y="196.7" width="97.6" height="24.65" shape-rendering="crispEdges"/><rect fill="#121212" x="0" y="221.1" width="97.6" height="24.65" shape-rendering="crispEdges"/><rect fill="#121212" x="97.6" y="221.1" width="658.8" height="24.65" shape-rendering="crispEdges"/><rect fill="#121212" x="756.4" y="221.1" width="97.6" height="24.65" shape-rendering="crispEdges"/><rect fill="#121212" x="0" y="245.5" width="97.6" height="24.65" shape-rendering="crispEdges"/><rect fill="#121212" x="97.6" y="245.5" width="658.8" height="24.65" shape-rendering="crispEdges"/><rect fill="#121212" x="756.4" y="245.5" width="97.6" height="24.65" shape-rendering="crispEdges"/><rect fill="#121212" x="0" y="269.9" width="97.6" height="24.65" shape-rendering="crispEdges"/><rect fill="#121212" x="97.6" y="269.9" width="658.8" height="24.65" shape-rendering="crispEdges"/><rect fill="#121212" x="756.4" y="269.9" width="97.6" height="24.65" shape-rendering="crispEdges"/><rect fill="#121212" x="0" y="294.3" width="97.6" height="24.65" shape-rendering="crispEdges"/><rect fill="#121212" x="97.6" y="294.3" width="658.8" height="24.65" shape-rendering="crispEdges"/><rect fill="#121212" x="756.4" y="294.3" width="97.6" height="24.65" shape-rendering="crispEdges"/><rect fill="#121212" x="0" y="318.7" width="97.6" height="24.65" shape-rendering="crispEdges"/><rect fill="#121212" x="97.6" y="318.7" width="658.8" height="24.65" shape-rendering="crispEdges"/><rect fill="#121212" x="756.4" y="318.7" width="97.6" height="24.65" shape-rendering="crispEdges"/><rect fill="#121212" x="0" y="343.1" width="97.6" height="24.65" shape-rendering="crispEdges"/><rect fill="#121212" x="97.6" y="343.1" width="658.8" height="24.65" shape-rendering="crispEdges"/><rect fill="#121212" x="756.4" y="343.1" width="97.6" height="24.65" shape-rendering="crispEdges"/><rect fill="#121212" x="0" y="367.5" width="97.6" height="24.65" shape-rendering="crispEdges"/><rect fill="#121212" x="97.6" y="367.5" width="658.8" height="24.65" shape-rendering="crispEdges"/><rect fill="#121212" x="756.4" y="367.5" width="97.6" height="24.65" shape-rendering="crispEdges"/><rect fill="#121212" x="0" y="391.9" width="97.6" height="24.65" shape-rendering="crispEdges"/><rect fill="#121212" x="97.6" y="391.9" width="658.8" height="24.65" shape-rendering="crispEdges"/><rect fill="#121212" x="756.4" y="391.9" width="97.6" height="24.65" shape-rendering="crispEdges"/><rect fill="#121212" x="0" y="416.3" width="97.6" height="24.65" shape-rendering="crispEdges"/><rect fill="#121212" x="97.6" y="416.3" width="658.8" height="24.65" shape-rendering="crispEdges"/><rect fill="#121212" x="756.4" y="416.3" width="97.6" height="24.65" shape-rendering="crispEdges"/><rect fill="#121212" x="0" y="440.7" width="97.6" height="24.65" shape-rendering="crispEdges"/><rect fill="#121212" x="97.6" y="440.7" width="61" height="24.65" shape-rendering="crispEdges"/><rect fill="#0c7dd4" x="158.6" y="440.7" width="195.2" height="24.65" shape-rendering="crispEdges"/><rect fill="#121212" x="353.8" y="440.7" width="61" height="24.65" shape-rendering="crispEdges"/><rect fill="#fea62b" x="414.8" y="440.7" width="195.2" height="24.65" shape-rendering="crispEdges"/><rect fill="#121212" x="610" y="440.7" width="146.4" height="24.65" shape-rendering="crispEdges"/><rect fill="#121212" x="756.4" y="440.7" width="97.6" height="24.65" shape-rendering="crispEdges"/><rect fill="#121212" x="0" y="465.1" width="97.6" height="24.65" shape-rendering="crispEdges"/><rect fill="#121212" x="97.6" y="465.1" width="61" height="24.65" shape-rendering="crispEdges"/><rect fill="#0c7dd4" x="158.6" y="465.1" width="36.6" height="24.65" shape-rendering="crispEdges"/><rect fill="#dfeef9" x="195.2" y="465.1" width="122" height="24.65" shape-rendering="crispEdges"/><rect fill="#0c7dd4" x="317.2" y="465.1" width="36.6" height="24.65" shape-rendering="crispEdges"/><rect fill="#121212" x="353.8" y="465.1" width="61" height="24.65" shape-rendering="crispEdges"/><rect fill="#fea62b" x="414.8" y="465.1" width="48.8" height="24.65" shape-rendering="crispEdges"/><rect fill="#fea62b" x="463.6" y="465.1" width="97.6" height="24.65" shape-rendering="crispEdges"/><rect fill="#fea62b" x="561.2" y="465.1" width="48.8" height="24.65" shape-rendering="crispEdges"/><rect fill="#121212" x="610" y="465.1" width="146.4" height="24.65" shape-rendering="crispEdges"/><rect fill="#121212" x="756.4" y="465.1" width="97.6" height="24.65" shape-rendering="crispEdges"/><rect fill="#121212" x="0" y="489.5" width="97.6" height="24.65" shape-rendering="crispEdges"/><rect fill="#121212" x="97.6" y="489.5" width="61" height="24.65" shape-rendering="crispEdges"/><rect fill="#0c7dd4" x="158.6" y="489.5" width="195.2" height="24.65" shape-rendering="crispEdges"/><rect fill="#121212" x="353.8" y="489.5" width="61" height="24.65" shape-rendering="crispEdges"/><rect fill="#fea62b" x="414.8" y="489.5" width="195.2" height="24.65" shape-rendering="crispEdges"/><rect fill="#121212" x="610" y="489.5" width="146.4" height="24.65" shape-rendering="crispEdges"/><rect fill="#121212" x="756.4" y="489.5" width="97.6" height="24.65" shape-rendering="crispEdges"/><rect fill="#121212" x="0" y="513.9" width="97.6" height="24.65" shape-rendering="crispEdges"/><rect fill="#121212" x="97.6" y="513.9" width="658.8" height="24.65" shape-rendering="crispEdges"/><rect fill="#121212" x="756.4" y="513.9" width="97.6" height="24.65" shape-rendering="crispEdges"/><rect fill="#121212" x="0" y="538.3" width="97.6" height="24.65" shape-rendering="crispEdges"/><rect fill="#121212" x="97.6" y="538.3" width="244" height="24.65" shape-rendering="crispEdges"/><rect fill="#121212" x="341.6" y="538.3" width="414.8" height="24.65" shape-rendering="crispEdges"/><rect fill="#121212" x="756.4" y="538.3" width="97.6" height="24.65" shape-rendering="crispEdges"/><rect fill="#121212" x="0" y="562.7" width="97.6" height="24.65" shape-rendering="crispEdges"/><rect fill="#121212" x="97.6" y="562.7" width="122" height="24.65" shape-rendering="crispEdges"/><rect fill="#121212" x="219.6" y="562.7" width="536.8" height="24.65" shape-rendering="crispEdges"/><rect fill="#121212" x="756.4" y="562.7" width="97.6" height="24.65" shape-rendering="crispEdges"/><rect fill="#121212" x="0" y="587.1" width="854" height="24.65" shape-rendering="crispEdges"/><rect fill="#121212" x="0" y="611.5" width="854" height="24.65" shape-rendering="crispEdges"/><rect fill="#242f38" x="0" y="635.9" width="36.6" height="24.65" shape-rendering="crispEdges"/><rect fill="#242f38" x="36.6" y="635.9" width="146.4" height="24.65" shape-rendering="crispEdges"/><rect fill="#242f38" x="183" y="635.9" width="524.6" height="24.65" shape-rendering="crispEdges"/><rect fill="#242f38" x="707.6" y="635.9" width="12.2" height="24.65" shape-rendering="crispEdges"/><rect fill="#242f38" x="719.8" y="635.9" width="24.4" height="24.65" shape-rendering="crispEdges"/><rect fill="#242f38" x="744.2" y="635.9" width="97.6" height="24.65" shape-rendering="crispEdges"/><rect fill="#242f38" x="841.8" y="635.9" width="12.2" height="24.65" shape-rendering="crispEdges"/>
    <g class="terminal-3566283003-matrix">
    <text class="terminal-3566283003-r2" x="12.2" y="20" textLength="12.2" clip-path="url(#terminal-3566283003-line-0)">M</text><text class="terminal-3566283003-r2" x="134.2" y="20" textLength="207.4" clip-path="url(#terminal-3566283003-line-0)">MUDUS&#160;Scan&#160;TUI&#160;—&#160;</text><text class="terminal-3566283003-r3" x="341.6" y="20" textLength="341.6" clip-path="url(#terminal-3566283003-line-0)">Multi-User&#160;system&#160;Disk&#160;USage</text><text class="terminal-3566283003-r1" x="854" y="20" textLength="12.2" clip-path="url(#terminal-3566283003-line-0)">
</text><text class="terminal-3566283003-r1" x="854" y="44.4" textLength="12.2" clip-path="url(#terminal-3566283003-line-1)">
</text><text class="terminal-3566283003-r1" x="854" y="68.8" textLength="12.2" clip-path="url(#terminal-3566283003-line-2)">
</text><text class="terminal-3566283003-r1" x="854" y="93.2" textLength="12.2" clip-path="url(#terminal-3566283003-line-3)">
</text><text class="terminal-3566283003-r1" x="854" y="117.6" textLength="12.2" clip-path="url(#terminal-3566283003-line-4)">
</text><text class="terminal-3566283003-r4" x="207.4" y="142" textLength="305" clip-path="url(#terminal-3566283003-line-5)">MUDUS&#160;File&#160;System&#160;Scanner</text><text class="terminal-3566283003-r1" x="854" y="142" textLength="12.2" clip-path="url(#terminal-3566283003-line-5)">
</text><text class="terminal-3566283003-r1" x="854" y="166.4" textLength="12.2" clip-path="url(#terminal-3566283003-line-6)">
</text><text class="terminal-3566283003-r1" x="854" y="190.8" textLength="12.2" clip-path="url(#terminal-3566283003-line-7)">
</text><text class="terminal-3566283003-r2" x="97.6" y="215.2" textLength="390.4" clip-path="url(#terminal-3566283003-line-8)">Scanner&#160;is&#160;NOT&#160;currently&#160;running</text><text class="terminal-3566283003-r1" x="854" y="215.2" textLength="12.2" clip-path="url(#terminal-3566283003-line-8)">
</text><text class="terminal-3566283003-r1" x="854" y="239.6" textLength="12.2" clip-path="url(#terminal-3566283003-line-9)">
</text><text class="terminal-3566283003-r1" x="854" y="264" textLength="12.2" clip-path="url(#terminal-3566283003-line-10)">
</text><text class="terminal-3566283003-r1" x="854" y="288.4" textLength="12.2" clip-path="url(#terminal-3566283003-line-11)">
</text><text class="terminal-3566283003-r1" x="854" y="312.8" textLength="12.2" clip-path="url(#terminal-3566283003-line-12)">
</text><text class="terminal-3566283003-r1" x="854" y="337.2" textLength="12.2" clip-path="url(#terminal-3566283003-line-13)">
</text><text class="terminal-3566283003-r1" x="854" y="361.6" textLength="12.2" clip-path="url(#terminal-3566283003-line-14)">
</text><text class="terminal-3566283003-r1" x="854" y="386" textLength="12.2" clip-path="url(#terminal-3566283003-line-15)">
</text><text class="terminal-3566283003-r1" x="854" y="410.4" textLength="12.2" clip-path="url(#terminal-3566283003-line-16)">
</text><text class="terminal-3566283003-r1" x="854" y="434.8" textLength="12.2" clip-path="url(#terminal-3566283003-line-17)">
</text><text class="terminal-3566283003-r5" x="158.6" y="459.2" textLength="195.2" clip-path="url(#terminal-3566283003-line-18)">▔▔▔▔▔▔▔▔▔▔▔▔▔▔▔▔</text><text class="terminal-3566283003-r6" x="414.8" y="459.2" textLength="195.2" clip-path="url(#terminal-3566283003-line-18)">▔▔▔▔▔▔▔▔▔▔▔▔▔▔▔▔</text><text class="terminal-3566283003-r1" x="854" y="459.2" textLength="12.2" clip-path="url(#terminal-3566283003-line-18)">
</text><text class="terminal-3566283003-r7" x="195.2" y="483.6" textLength="122" clip-path="url(#terminal-3566283003-line-19)">&#160;Scan&#160;Now&#160;</text><text class="terminal-3566283003-r8" x="463.6" y="483.6" textLength="97.6" clip-path="url(#terminal-3566283003-line-19)">&#160;Cancel&#160;</text><text class="terminal-3566283003-r1" x="854" y="483.6" textLength="12.2" clip-path="url(#terminal-3566283003-line-19)">
</text><text class="terminal-3566283003-r9" x="158.6" y="508" textLength="195.2" clip-path="url(#terminal-3566283003-line-20)">▁▁▁▁▁▁▁▁▁▁▁▁▁▁▁▁</text><text class="terminal-3566283003-r10" x="414.8" y="508" textLength="195.2" clip-path="url(#terminal-3566283003-line-20)">▁▁▁▁▁▁▁▁▁▁▁▁▁▁▁▁</text><text class="terminal-3566283003-r1" x="854" y="508" textLength="12.2" clip-path="url(#terminal-3566283003-line-20)">
</text><text class="terminal-3566283003-r1" x="854" y="532.4" textLength="12.2" clip-path="url(#terminal-3566283003-line-21)">
</text><text class="terminal-3566283003-r2" x="97.6" y="556.8" textLength="244" clip-path="url(#terminal-3566283003-line-22)">Directories&#160;to&#160;scan:</text><text class="terminal-3566283003-r1" x="854" y="556.8" textLength="12.2" clip-path="url(#terminal-3566283003-line-22)">
</text><text class="terminal-3566283003-r2" x="97.6" y="581.2" textLength="122" clip-path="url(#terminal-3566283003-line-23)">&#160;&#160;-/beegfs</text><text class="terminal-3566283003-r1" x="854" y="581.2" textLength="12.2" clip-path="url(#terminal-3566283003-line-23)">
</text><text class="terminal-3566283003-r1" x="854" y="605.6" textLength="12.2" clip-path="url(#terminal-3566283003-line-24)">
</text><text class="terminal-3566283003-r1" x="854" y="630" textLength="12.2" clip-path="url(#terminal-3566283003-line-25)">
</text><text class="terminal-3566283003-r11" x="0" y="654.4" textLength="36.6" clip-path="url(#terminal-3566283003-line-26)">&#160;q&#160;</text><text class="terminal-3566283003-r2" x="36.6" y="654.4" textLength="146.4" clip-path="url(#terminal-3566283003-line-26)">Close&#160;MUDUS&#160;</text><text class="terminal-3566283003-r12" x="707.6" y="654.4" textLength="12.2" clip-path="url(#terminal-3566283003-line-26)">▏</text><text class="terminal-3566283003-r11" x="719.8" y="654.4" textLength="24.4" clip-path="url(#terminal-3566283003-line-26)">^p</text><text class="terminal-3566283003-r2" x="744.2" y="654.4" textLength="97.6" clip-path="url(#terminal-3566283003-line-26)">&#160;palette</text>
    </g>
    </g>
</svg>
