<svg width="20" height="20" viewBox="0 0 16 16" fill="none" xmlns="http://www.w3.org/2000/svg">
<g id="Close 24">
<path id="Vector" d="M12.4954 2.99282C12.3633 2.99593 12.2379 3.05117 12.1464 3.14646L7.99991 7.29295L3.85343 3.14646C3.80682 3.09847 3.75106 3.06031 3.68944 3.03425C3.62783 3.0082 3.56161 2.99477 3.49471 2.99477C3.3952 2.99479 3.29796 3.0245 3.21544 3.0801C3.13291 3.1357 3.06885 3.21465 3.03145 3.30687C2.99404 3.39908 2.985 3.50035 3.00548 3.59773C3.02596 3.6951 3.07503 3.78416 3.1464 3.85349L7.29288 7.99998L3.1464 12.1465C3.09841 12.1925 3.0601 12.2477 3.03371 12.3088C3.00732 12.3698 2.99338 12.4356 2.9927 12.5021C2.99203 12.5686 3.00463 12.6346 3.02977 12.6962C3.05492 12.7578 3.0921 12.8137 3.13914 12.8608C3.18618 12.9078 3.24213 12.945 3.30372 12.9701C3.3653 12.9953 3.43129 13.0079 3.49781 13.0072C3.56433 13.0065 3.63005 12.9926 3.69111 12.9662C3.75217 12.9398 3.80736 12.9015 3.85343 12.8535L7.99991 8.70701L12.1464 12.8535C12.1925 12.9015 12.2477 12.9398 12.3087 12.9662C12.3698 12.9926 12.4355 13.0065 12.502 13.0072C12.5685 13.0079 12.6345 12.9953 12.6961 12.9701C12.7577 12.945 12.8137 12.9078 12.8607 12.8608C12.9077 12.8137 12.9449 12.7578 12.9701 12.6962C12.9952 12.6346 13.0078 12.5686 13.0071 12.5021C13.0065 12.4356 12.9925 12.3698 12.9661 12.3088C12.9397 12.2477 12.9014 12.1925 12.8534 12.1465L8.70695 7.99998L12.8534 3.85349C12.9261 3.78371 12.9761 3.69358 12.9967 3.59492C13.0173 3.49627 13.0076 3.3937 12.9689 3.30065C12.9301 3.2076 12.8642 3.12842 12.7797 3.07349C12.6952 3.01855 12.5961 2.99043 12.4954 2.99282Z" fill="black" fill-opacity="0.4"/>
</g>
</svg>
