<?xml version="1.0" encoding="UTF-8" standalone="no"?>
<!DOCTYPE svg PUBLIC "-//W3C//DTD SVG 1.1//EN"
 "http://www.w3.org/Graphics/SVG/1.1/DTD/svg11.dtd">
<!-- Generated by graphviz version 2.43.0 (0)
 -->
<!-- Title: CodeStructure Pages: 1 -->
<svg width="402pt" height="1782pt"
 viewBox="0.00 0.00 402.00 1782.00" xmlns="http://www.w3.org/2000/svg" xmlns:xlink="http://www.w3.org/1999/xlink">
<g id="graph0" class="graph" transform="scale(1 1) rotate(0) translate(4 1778)">
<title>CodeStructure</title>
<polygon fill="white" stroke="transparent" points="-4,4 -4,-1778 398,-1778 398,4 -4,4"/>
<!-- 74be419f5826bcd1 -->
<g id="node1" class="node">
<title>74be419f5826bcd1</title>
<path fill="lightblue" stroke="black" d="M382,-66C382,-66 266,-66 266,-66 260,-66 254,-60 254,-54 254,-54 254,-40 254,-40 254,-34 260,-28 266,-28 266,-28 382,-28 382,-28 388,-28 394,-34 394,-40 394,-40 394,-54 394,-54 394,-60 388,-66 382,-66"/>
<text text-anchor="middle" x="324" y="-50.8" font-family="Times,serif" font-size="14.00">class_definition</text>
<text text-anchor="middle" x="324" y="-35.8" font-family="Times,serif" font-size="14.00">language: python</text>
</g>
<!-- d932a3420a370f0e -->
<g id="node2" class="node">
<title>d932a3420a370f0e</title>
<path fill="lightblue" stroke="black" d="M143.5,-150C143.5,-150 18.5,-150 18.5,-150 12.5,-150 6.5,-144 6.5,-138 6.5,-138 6.5,-124 6.5,-124 6.5,-118 12.5,-112 18.5,-112 18.5,-112 143.5,-112 143.5,-112 149.5,-112 155.5,-118 155.5,-124 155.5,-124 155.5,-138 155.5,-138 155.5,-144 149.5,-150 143.5,-150"/>
<text text-anchor="middle" x="81" y="-134.8" font-family="Times,serif" font-size="14.00">function_definition</text>
<text text-anchor="middle" x="81" y="-119.8" font-family="Times,serif" font-size="14.00">language: python</text>
</g>
<!-- 4d2204d1d9f27f48 -->
<g id="node3" class="node">
<title>4d2204d1d9f27f48</title>
<path fill="lightblue" stroke="black" d="M143.5,-206C143.5,-206 18.5,-206 18.5,-206 12.5,-206 6.5,-200 6.5,-194 6.5,-194 6.5,-180 6.5,-180 6.5,-174 12.5,-168 18.5,-168 18.5,-168 143.5,-168 143.5,-168 149.5,-168 155.5,-174 155.5,-180 155.5,-180 155.5,-194 155.5,-194 155.5,-200 149.5,-206 143.5,-206"/>
<text text-anchor="middle" x="81" y="-190.8" font-family="Times,serif" font-size="14.00">function_definition</text>
<text text-anchor="middle" x="81" y="-175.8" font-family="Times,serif" font-size="14.00">language: python</text>
</g>
<!-- 409740c7e4dc0672 -->
<g id="node4" class="node">
<title>409740c7e4dc0672</title>
<path fill="lightblue" stroke="black" d="M150,-262C150,-262 12,-262 12,-262 6,-262 0,-256 0,-250 0,-250 0,-236 0,-236 0,-230 6,-224 12,-224 12,-224 150,-224 150,-224 156,-224 162,-230 162,-236 162,-236 162,-250 162,-250 162,-256 156,-262 150,-262"/>
<text text-anchor="middle" x="81" y="-246.8" font-family="Times,serif" font-size="14.00">decorated_definition</text>
<text text-anchor="middle" x="81" y="-231.8" font-family="Times,serif" font-size="14.00">language: python</text>
</g>
<!-- 4f5034d9e56b349b -->
<g id="node5" class="node">
<title>4f5034d9e56b349b</title>
<path fill="lightblue" stroke="black" d="M143.5,-318C143.5,-318 18.5,-318 18.5,-318 12.5,-318 6.5,-312 6.5,-306 6.5,-306 6.5,-292 6.5,-292 6.5,-286 12.5,-280 18.5,-280 18.5,-280 143.5,-280 143.5,-280 149.5,-280 155.5,-286 155.5,-292 155.5,-292 155.5,-306 155.5,-306 155.5,-312 149.5,-318 143.5,-318"/>
<text text-anchor="middle" x="81" y="-302.8" font-family="Times,serif" font-size="14.00">function_definition</text>
<text text-anchor="middle" x="81" y="-287.8" font-family="Times,serif" font-size="14.00">language: python</text>
</g>
<!-- c10e5fed6159bb02 -->
<g id="node6" class="node">
<title>c10e5fed6159bb02</title>
<path fill="lightblue" stroke="black" d="M139,-94C139,-94 23,-94 23,-94 17,-94 11,-88 11,-82 11,-82 11,-68 11,-68 11,-62 17,-56 23,-56 23,-56 139,-56 139,-56 145,-56 151,-62 151,-68 151,-68 151,-82 151,-82 151,-88 145,-94 139,-94"/>
<text text-anchor="middle" x="81" y="-78.8" font-family="Times,serif" font-size="14.00">class_definition</text>
<text text-anchor="middle" x="81" y="-63.8" font-family="Times,serif" font-size="14.00">language: python</text>
</g>
<!-- c10e5fed6159bb02&#45;&gt;74be419f5826bcd1 -->
<g id="edge1" class="edge">
<title>c10e5fed6159bb02&#45;&gt;74be419f5826bcd1</title>
<path fill="none" stroke="red" d="M151.06,-66.98C180.05,-63.61 213.94,-59.67 243.92,-56.19"/>
<polygon fill="none" stroke="red" points="244.4,-59.66 253.93,-55.02 243.59,-52.7 244.4,-59.66"/>
<text text-anchor="middle" x="208" y="-67.8" font-family="Times,serif" font-size="14.00">inherits</text>
</g>
<!-- b0f5579694c841c8 -->
<g id="node7" class="node">
<title>b0f5579694c841c8</title>
<path fill="lightblue" stroke="black" d="M143.5,-374C143.5,-374 18.5,-374 18.5,-374 12.5,-374 6.5,-368 6.5,-362 6.5,-362 6.5,-348 6.5,-348 6.5,-342 12.5,-336 18.5,-336 18.5,-336 143.5,-336 143.5,-336 149.5,-336 155.5,-342 155.5,-348 155.5,-348 155.5,-362 155.5,-362 155.5,-368 149.5,-374 143.5,-374"/>
<text text-anchor="middle" x="81" y="-358.8" font-family="Times,serif" font-size="14.00">function_definition</text>
<text text-anchor="middle" x="81" y="-343.8" font-family="Times,serif" font-size="14.00">language: python</text>
</g>
<!-- 9ef753c0286b035e -->
<g id="node8" class="node">
<title>9ef753c0286b035e</title>
<path fill="lightblue" stroke="black" d="M143.5,-430C143.5,-430 18.5,-430 18.5,-430 12.5,-430 6.5,-424 6.5,-418 6.5,-418 6.5,-404 6.5,-404 6.5,-398 12.5,-392 18.5,-392 18.5,-392 143.5,-392 143.5,-392 149.5,-392 155.5,-398 155.5,-404 155.5,-404 155.5,-418 155.5,-418 155.5,-424 149.5,-430 143.5,-430"/>
<text text-anchor="middle" x="81" y="-414.8" font-family="Times,serif" font-size="14.00">function_definition</text>
<text text-anchor="middle" x="81" y="-399.8" font-family="Times,serif" font-size="14.00">language: python</text>
</g>
<!-- 85efbeb0caec5918 -->
<g id="node9" class="node">
<title>85efbeb0caec5918</title>
<path fill="lightblue" stroke="black" d="M139,-38C139,-38 23,-38 23,-38 17,-38 11,-32 11,-26 11,-26 11,-12 11,-12 11,-6 17,0 23,0 23,0 139,0 139,0 145,0 151,-6 151,-12 151,-12 151,-26 151,-26 151,-32 145,-38 139,-38"/>
<text text-anchor="middle" x="81" y="-22.8" font-family="Times,serif" font-size="14.00">class_definition</text>
<text text-anchor="middle" x="81" y="-7.8" font-family="Times,serif" font-size="14.00">language: python</text>
</g>
<!-- 85efbeb0caec5918&#45;&gt;74be419f5826bcd1 -->
<g id="edge2" class="edge">
<title>85efbeb0caec5918&#45;&gt;74be419f5826bcd1</title>
<path fill="none" stroke="red" d="M151.06,-27.02C180.05,-30.39 213.94,-34.33 243.92,-37.81"/>
<polygon fill="none" stroke="red" points="243.59,-41.3 253.93,-38.98 244.4,-34.34 243.59,-41.3"/>
<text text-anchor="middle" x="208" y="-40.8" font-family="Times,serif" font-size="14.00">inherits</text>
</g>
<!-- cad914b036122570 -->
<g id="node10" class="node">
<title>cad914b036122570</title>
<path fill="lightblue" stroke="black" d="M143.5,-486C143.5,-486 18.5,-486 18.5,-486 12.5,-486 6.5,-480 6.5,-474 6.5,-474 6.5,-460 6.5,-460 6.5,-454 12.5,-448 18.5,-448 18.5,-448 143.5,-448 143.5,-448 149.5,-448 155.5,-454 155.5,-460 155.5,-460 155.5,-474 155.5,-474 155.5,-480 149.5,-486 143.5,-486"/>
<text text-anchor="middle" x="81" y="-470.8" font-family="Times,serif" font-size="14.00">function_definition</text>
<text text-anchor="middle" x="81" y="-455.8" font-family="Times,serif" font-size="14.00">language: python</text>
</g>
<!-- e0eb28a25ddb73bf -->
<g id="node11" class="node">
<title>e0eb28a25ddb73bf</title>
<path fill="lightblue" stroke="black" d="M150,-542C150,-542 12,-542 12,-542 6,-542 0,-536 0,-530 0,-530 0,-516 0,-516 0,-510 6,-504 12,-504 12,-504 150,-504 150,-504 156,-504 162,-510 162,-516 162,-516 162,-530 162,-530 162,-536 156,-542 150,-542"/>
<text text-anchor="middle" x="81" y="-526.8" font-family="Times,serif" font-size="14.00">decorated_definition</text>
<text text-anchor="middle" x="81" y="-511.8" font-family="Times,serif" font-size="14.00">language: python</text>
</g>
<!-- 751dbe2dce83ea41 -->
<g id="node12" class="node">
<title>751dbe2dce83ea41</title>
<path fill="lightblue" stroke="black" d="M143.5,-598C143.5,-598 18.5,-598 18.5,-598 12.5,-598 6.5,-592 6.5,-586 6.5,-586 6.5,-572 6.5,-572 6.5,-566 12.5,-560 18.5,-560 18.5,-560 143.5,-560 143.5,-560 149.5,-560 155.5,-566 155.5,-572 155.5,-572 155.5,-586 155.5,-586 155.5,-592 149.5,-598 143.5,-598"/>
<text text-anchor="middle" x="81" y="-582.8" font-family="Times,serif" font-size="14.00">function_definition</text>
<text text-anchor="middle" x="81" y="-567.8" font-family="Times,serif" font-size="14.00">language: python</text>
</g>
<!-- 0ca77e2ccfc72a8e -->
<g id="node13" class="node">
<title>0ca77e2ccfc72a8e</title>
<path fill="lightblue" stroke="black" d="M139,-654C139,-654 23,-654 23,-654 17,-654 11,-648 11,-642 11,-642 11,-628 11,-628 11,-622 17,-616 23,-616 23,-616 139,-616 139,-616 145,-616 151,-622 151,-628 151,-628 151,-642 151,-642 151,-648 145,-654 139,-654"/>
<text text-anchor="middle" x="81" y="-638.8" font-family="Times,serif" font-size="14.00">class_definition</text>
<text text-anchor="middle" x="81" y="-623.8" font-family="Times,serif" font-size="14.00">language: python</text>
</g>
<!-- 8c747d25405b2053 -->
<g id="node14" class="node">
<title>8c747d25405b2053</title>
<path fill="lightblue" stroke="black" d="M143.5,-710C143.5,-710 18.5,-710 18.5,-710 12.5,-710 6.5,-704 6.5,-698 6.5,-698 6.5,-684 6.5,-684 6.5,-678 12.5,-672 18.5,-672 18.5,-672 143.5,-672 143.5,-672 149.5,-672 155.5,-678 155.5,-684 155.5,-684 155.5,-698 155.5,-698 155.5,-704 149.5,-710 143.5,-710"/>
<text text-anchor="middle" x="81" y="-694.8" font-family="Times,serif" font-size="14.00">function_definition</text>
<text text-anchor="middle" x="81" y="-679.8" font-family="Times,serif" font-size="14.00">language: python</text>
</g>
<!-- 2685cd53327ae41c -->
<g id="node15" class="node">
<title>2685cd53327ae41c</title>
<path fill="lightblue" stroke="black" d="M143.5,-766C143.5,-766 18.5,-766 18.5,-766 12.5,-766 6.5,-760 6.5,-754 6.5,-754 6.5,-740 6.5,-740 6.5,-734 12.5,-728 18.5,-728 18.5,-728 143.5,-728 143.5,-728 149.5,-728 155.5,-734 155.5,-740 155.5,-740 155.5,-754 155.5,-754 155.5,-760 149.5,-766 143.5,-766"/>
<text text-anchor="middle" x="81" y="-750.8" font-family="Times,serif" font-size="14.00">function_definition</text>
<text text-anchor="middle" x="81" y="-735.8" font-family="Times,serif" font-size="14.00">language: python</text>
</g>
<!-- c0c8421e60b8489b -->
<g id="node16" class="node">
<title>c0c8421e60b8489b</title>
<path fill="lightblue" stroke="black" d="M143.5,-822C143.5,-822 18.5,-822 18.5,-822 12.5,-822 6.5,-816 6.5,-810 6.5,-810 6.5,-796 6.5,-796 6.5,-790 12.5,-784 18.5,-784 18.5,-784 143.5,-784 143.5,-784 149.5,-784 155.5,-790 155.5,-796 155.5,-796 155.5,-810 155.5,-810 155.5,-816 149.5,-822 143.5,-822"/>
<text text-anchor="middle" x="81" y="-806.8" font-family="Times,serif" font-size="14.00">function_definition</text>
<text text-anchor="middle" x="81" y="-791.8" font-family="Times,serif" font-size="14.00">language: python</text>
</g>
<!-- c5248c0a4f276632 -->
<g id="node17" class="node">
<title>c5248c0a4f276632</title>
<path fill="lightblue" stroke="black" d="M143.5,-878C143.5,-878 18.5,-878 18.5,-878 12.5,-878 6.5,-872 6.5,-866 6.5,-866 6.5,-852 6.5,-852 6.5,-846 12.5,-840 18.5,-840 18.5,-840 143.5,-840 143.5,-840 149.5,-840 155.5,-846 155.5,-852 155.5,-852 155.5,-866 155.5,-866 155.5,-872 149.5,-878 143.5,-878"/>
<text text-anchor="middle" x="81" y="-862.8" font-family="Times,serif" font-size="14.00">function_definition</text>
<text text-anchor="middle" x="81" y="-847.8" font-family="Times,serif" font-size="14.00">language: python</text>
</g>
<!-- f4ffd70203af3381 -->
<g id="node18" class="node">
<title>f4ffd70203af3381</title>
<path fill="lightblue" stroke="black" d="M139,-934C139,-934 23,-934 23,-934 17,-934 11,-928 11,-922 11,-922 11,-908 11,-908 11,-902 17,-896 23,-896 23,-896 139,-896 139,-896 145,-896 151,-902 151,-908 151,-908 151,-922 151,-922 151,-928 145,-934 139,-934"/>
<text text-anchor="middle" x="81" y="-918.8" font-family="Times,serif" font-size="14.00">class_definition</text>
<text text-anchor="middle" x="81" y="-903.8" font-family="Times,serif" font-size="14.00">language: python</text>
</g>
<!-- b9152e528a03b5b4 -->
<g id="node19" class="node">
<title>b9152e528a03b5b4</title>
<path fill="lightblue" stroke="black" d="M143.5,-990C143.5,-990 18.5,-990 18.5,-990 12.5,-990 6.5,-984 6.5,-978 6.5,-978 6.5,-964 6.5,-964 6.5,-958 12.5,-952 18.5,-952 18.5,-952 143.5,-952 143.5,-952 149.5,-952 155.5,-958 155.5,-964 155.5,-964 155.5,-978 155.5,-978 155.5,-984 149.5,-990 143.5,-990"/>
<text text-anchor="middle" x="81" y="-974.8" font-family="Times,serif" font-size="14.00">function_definition</text>
<text text-anchor="middle" x="81" y="-959.8" font-family="Times,serif" font-size="14.00">language: python</text>
</g>
<!-- 6d8f1661ff0fe61a -->
<g id="node20" class="node">
<title>6d8f1661ff0fe61a</title>
<path fill="lightblue" stroke="black" d="M143.5,-1046C143.5,-1046 18.5,-1046 18.5,-1046 12.5,-1046 6.5,-1040 6.5,-1034 6.5,-1034 6.5,-1020 6.5,-1020 6.5,-1014 12.5,-1008 18.5,-1008 18.5,-1008 143.5,-1008 143.5,-1008 149.5,-1008 155.5,-1014 155.5,-1020 155.5,-1020 155.5,-1034 155.5,-1034 155.5,-1040 149.5,-1046 143.5,-1046"/>
<text text-anchor="middle" x="81" y="-1030.8" font-family="Times,serif" font-size="14.00">function_definition</text>
<text text-anchor="middle" x="81" y="-1015.8" font-family="Times,serif" font-size="14.00">language: python</text>
</g>
<!-- dd6f9190f7e92b1e -->
<g id="node21" class="node">
<title>dd6f9190f7e92b1e</title>
<path fill="lightblue" stroke="black" d="M143.5,-1102C143.5,-1102 18.5,-1102 18.5,-1102 12.5,-1102 6.5,-1096 6.5,-1090 6.5,-1090 6.5,-1076 6.5,-1076 6.5,-1070 12.5,-1064 18.5,-1064 18.5,-1064 143.5,-1064 143.5,-1064 149.5,-1064 155.5,-1070 155.5,-1076 155.5,-1076 155.5,-1090 155.5,-1090 155.5,-1096 149.5,-1102 143.5,-1102"/>
<text text-anchor="middle" x="81" y="-1086.8" font-family="Times,serif" font-size="14.00">function_definition</text>
<text text-anchor="middle" x="81" y="-1071.8" font-family="Times,serif" font-size="14.00">language: python</text>
</g>
<!-- b58831c583879d1c -->
<g id="node22" class="node">
<title>b58831c583879d1c</title>
<path fill="lightblue" stroke="black" d="M382,-1158C382,-1158 266,-1158 266,-1158 260,-1158 254,-1152 254,-1146 254,-1146 254,-1132 254,-1132 254,-1126 260,-1120 266,-1120 266,-1120 382,-1120 382,-1120 388,-1120 394,-1126 394,-1132 394,-1132 394,-1146 394,-1146 394,-1152 388,-1158 382,-1158"/>
<text text-anchor="middle" x="324" y="-1142.8" font-family="Times,serif" font-size="14.00">class_definition</text>
<text text-anchor="middle" x="324" y="-1127.8" font-family="Times,serif" font-size="14.00">language: python</text>
</g>
<!-- ea7271c7a43e7245 -->
<g id="node23" class="node">
<title>ea7271c7a43e7245</title>
<path fill="lightblue" stroke="black" d="M143.5,-1214C143.5,-1214 18.5,-1214 18.5,-1214 12.5,-1214 6.5,-1208 6.5,-1202 6.5,-1202 6.5,-1188 6.5,-1188 6.5,-1182 12.5,-1176 18.5,-1176 18.5,-1176 143.5,-1176 143.5,-1176 149.5,-1176 155.5,-1182 155.5,-1188 155.5,-1188 155.5,-1202 155.5,-1202 155.5,-1208 149.5,-1214 143.5,-1214"/>
<text text-anchor="middle" x="81" y="-1198.8" font-family="Times,serif" font-size="14.00">function_definition</text>
<text text-anchor="middle" x="81" y="-1183.8" font-family="Times,serif" font-size="14.00">language: python</text>
</g>
<!-- 4016f22ca5f9af9f -->
<g id="node24" class="node">
<title>4016f22ca5f9af9f</title>
<path fill="lightblue" stroke="black" d="M143.5,-1270C143.5,-1270 18.5,-1270 18.5,-1270 12.5,-1270 6.5,-1264 6.5,-1258 6.5,-1258 6.5,-1244 6.5,-1244 6.5,-1238 12.5,-1232 18.5,-1232 18.5,-1232 143.5,-1232 143.5,-1232 149.5,-1232 155.5,-1238 155.5,-1244 155.5,-1244 155.5,-1258 155.5,-1258 155.5,-1264 149.5,-1270 143.5,-1270"/>
<text text-anchor="middle" x="81" y="-1254.8" font-family="Times,serif" font-size="14.00">function_definition</text>
<text text-anchor="middle" x="81" y="-1239.8" font-family="Times,serif" font-size="14.00">language: python</text>
</g>
<!-- a3fba2df2623b907 -->
<g id="node25" class="node">
<title>a3fba2df2623b907</title>
<path fill="lightblue" stroke="black" d="M143.5,-1326C143.5,-1326 18.5,-1326 18.5,-1326 12.5,-1326 6.5,-1320 6.5,-1314 6.5,-1314 6.5,-1300 6.5,-1300 6.5,-1294 12.5,-1288 18.5,-1288 18.5,-1288 143.5,-1288 143.5,-1288 149.5,-1288 155.5,-1294 155.5,-1300 155.5,-1300 155.5,-1314 155.5,-1314 155.5,-1320 149.5,-1326 143.5,-1326"/>
<text text-anchor="middle" x="81" y="-1310.8" font-family="Times,serif" font-size="14.00">function_definition</text>
<text text-anchor="middle" x="81" y="-1295.8" font-family="Times,serif" font-size="14.00">language: python</text>
</g>
<!-- 2fad746c6190da53 -->
<g id="node26" class="node">
<title>2fad746c6190da53</title>
<path fill="lightblue" stroke="black" d="M143.5,-1382C143.5,-1382 18.5,-1382 18.5,-1382 12.5,-1382 6.5,-1376 6.5,-1370 6.5,-1370 6.5,-1356 6.5,-1356 6.5,-1350 12.5,-1344 18.5,-1344 18.5,-1344 143.5,-1344 143.5,-1344 149.5,-1344 155.5,-1350 155.5,-1356 155.5,-1356 155.5,-1370 155.5,-1370 155.5,-1376 149.5,-1382 143.5,-1382"/>
<text text-anchor="middle" x="81" y="-1366.8" font-family="Times,serif" font-size="14.00">function_definition</text>
<text text-anchor="middle" x="81" y="-1351.8" font-family="Times,serif" font-size="14.00">language: python</text>
</g>
<!-- 5c38cf8b9d312e92 -->
<g id="node27" class="node">
<title>5c38cf8b9d312e92</title>
<path fill="lightblue" stroke="black" d="M143.5,-1158C143.5,-1158 18.5,-1158 18.5,-1158 12.5,-1158 6.5,-1152 6.5,-1146 6.5,-1146 6.5,-1132 6.5,-1132 6.5,-1126 12.5,-1120 18.5,-1120 18.5,-1120 143.5,-1120 143.5,-1120 149.5,-1120 155.5,-1126 155.5,-1132 155.5,-1132 155.5,-1146 155.5,-1146 155.5,-1152 149.5,-1158 143.5,-1158"/>
<text text-anchor="middle" x="81" y="-1142.8" font-family="Times,serif" font-size="14.00">function_definition</text>
<text text-anchor="middle" x="81" y="-1127.8" font-family="Times,serif" font-size="14.00">language: python</text>
</g>
<!-- 5c38cf8b9d312e92&#45;&gt;b58831c583879d1c -->
<g id="edge3" class="edge">
<title>5c38cf8b9d312e92&#45;&gt;b58831c583879d1c</title>
<path fill="none" stroke="blue" d="M155.62,-1139C183.48,-1139 215.3,-1139 243.67,-1139"/>
<polygon fill="blue" stroke="blue" points="243.95,-1142.5 253.95,-1139 243.95,-1135.5 243.95,-1142.5"/>
<text text-anchor="middle" x="208" y="-1142.8" font-family="Times,serif" font-size="14.00">calls</text>
</g>
<!-- 443a74b3d588fcc7 -->
<g id="node28" class="node">
<title>443a74b3d588fcc7</title>
<path fill="lightblue" stroke="black" d="M139,-1438C139,-1438 23,-1438 23,-1438 17,-1438 11,-1432 11,-1426 11,-1426 11,-1412 11,-1412 11,-1406 17,-1400 23,-1400 23,-1400 139,-1400 139,-1400 145,-1400 151,-1406 151,-1412 151,-1412 151,-1426 151,-1426 151,-1432 145,-1438 139,-1438"/>
<text text-anchor="middle" x="81" y="-1422.8" font-family="Times,serif" font-size="14.00">class_definition</text>
<text text-anchor="middle" x="81" y="-1407.8" font-family="Times,serif" font-size="14.00">language: python</text>
</g>
<!-- df3853881e2c0e27 -->
<g id="node29" class="node">
<title>df3853881e2c0e27</title>
<path fill="lightblue" stroke="black" d="M150,-1494C150,-1494 12,-1494 12,-1494 6,-1494 0,-1488 0,-1482 0,-1482 0,-1468 0,-1468 0,-1462 6,-1456 12,-1456 12,-1456 150,-1456 150,-1456 156,-1456 162,-1462 162,-1468 162,-1468 162,-1482 162,-1482 162,-1488 156,-1494 150,-1494"/>
<text text-anchor="middle" x="81" y="-1478.8" font-family="Times,serif" font-size="14.00">decorated_definition</text>
<text text-anchor="middle" x="81" y="-1463.8" font-family="Times,serif" font-size="14.00">language: python</text>
</g>
<!-- af4ea56f70f130df -->
<g id="node30" class="node">
<title>af4ea56f70f130df</title>
<path fill="lightblue" stroke="black" d="M143.5,-1550C143.5,-1550 18.5,-1550 18.5,-1550 12.5,-1550 6.5,-1544 6.5,-1538 6.5,-1538 6.5,-1524 6.5,-1524 6.5,-1518 12.5,-1512 18.5,-1512 18.5,-1512 143.5,-1512 143.5,-1512 149.5,-1512 155.5,-1518 155.5,-1524 155.5,-1524 155.5,-1538 155.5,-1538 155.5,-1544 149.5,-1550 143.5,-1550"/>
<text text-anchor="middle" x="81" y="-1534.8" font-family="Times,serif" font-size="14.00">function_definition</text>
<text text-anchor="middle" x="81" y="-1519.8" font-family="Times,serif" font-size="14.00">language: python</text>
</g>
<!-- c1a3e5adf3872a29 -->
<g id="node31" class="node">
<title>c1a3e5adf3872a29</title>
<path fill="lightblue" stroke="black" d="M382,-1606C382,-1606 266,-1606 266,-1606 260,-1606 254,-1600 254,-1594 254,-1594 254,-1580 254,-1580 254,-1574 260,-1568 266,-1568 266,-1568 382,-1568 382,-1568 388,-1568 394,-1574 394,-1580 394,-1580 394,-1594 394,-1594 394,-1600 388,-1606 382,-1606"/>
<text text-anchor="middle" x="324" y="-1590.8" font-family="Times,serif" font-size="14.00">class_definition</text>
<text text-anchor="middle" x="324" y="-1575.8" font-family="Times,serif" font-size="14.00">language: python</text>
</g>
<!-- 113d026aed7ca722 -->
<g id="node32" class="node">
<title>113d026aed7ca722</title>
<path fill="lightblue" stroke="black" d="M143.5,-1662C143.5,-1662 18.5,-1662 18.5,-1662 12.5,-1662 6.5,-1656 6.5,-1650 6.5,-1650 6.5,-1636 6.5,-1636 6.5,-1630 12.5,-1624 18.5,-1624 18.5,-1624 143.5,-1624 143.5,-1624 149.5,-1624 155.5,-1630 155.5,-1636 155.5,-1636 155.5,-1650 155.5,-1650 155.5,-1656 149.5,-1662 143.5,-1662"/>
<text text-anchor="middle" x="81" y="-1646.8" font-family="Times,serif" font-size="14.00">function_definition</text>
<text text-anchor="middle" x="81" y="-1631.8" font-family="Times,serif" font-size="14.00">language: python</text>
</g>
<!-- 495bf915a167f511 -->
<g id="node33" class="node">
<title>495bf915a167f511</title>
<path fill="lightblue" stroke="black" d="M143.5,-1718C143.5,-1718 18.5,-1718 18.5,-1718 12.5,-1718 6.5,-1712 6.5,-1706 6.5,-1706 6.5,-1692 6.5,-1692 6.5,-1686 12.5,-1680 18.5,-1680 18.5,-1680 143.5,-1680 143.5,-1680 149.5,-1680 155.5,-1686 155.5,-1692 155.5,-1692 155.5,-1706 155.5,-1706 155.5,-1712 149.5,-1718 143.5,-1718"/>
<text text-anchor="middle" x="81" y="-1702.8" font-family="Times,serif" font-size="14.00">function_definition</text>
<text text-anchor="middle" x="81" y="-1687.8" font-family="Times,serif" font-size="14.00">language: python</text>
</g>
<!-- f9197312c62205e7 -->
<g id="node34" class="node">
<title>f9197312c62205e7</title>
<path fill="lightblue" stroke="black" d="M143.5,-1774C143.5,-1774 18.5,-1774 18.5,-1774 12.5,-1774 6.5,-1768 6.5,-1762 6.5,-1762 6.5,-1748 6.5,-1748 6.5,-1742 12.5,-1736 18.5,-1736 18.5,-1736 143.5,-1736 143.5,-1736 149.5,-1736 155.5,-1742 155.5,-1748 155.5,-1748 155.5,-1762 155.5,-1762 155.5,-1768 149.5,-1774 143.5,-1774"/>
<text text-anchor="middle" x="81" y="-1758.8" font-family="Times,serif" font-size="14.00">function_definition</text>
<text text-anchor="middle" x="81" y="-1743.8" font-family="Times,serif" font-size="14.00">language: python</text>
</g>
<!-- 63823f52d236afb2 -->
<g id="node35" class="node">
<title>63823f52d236afb2</title>
<path fill="lightblue" stroke="black" d="M143.5,-1606C143.5,-1606 18.5,-1606 18.5,-1606 12.5,-1606 6.5,-1600 6.5,-1594 6.5,-1594 6.5,-1580 6.5,-1580 6.5,-1574 12.5,-1568 18.5,-1568 18.5,-1568 143.5,-1568 143.5,-1568 149.5,-1568 155.5,-1574 155.5,-1580 155.5,-1580 155.5,-1594 155.5,-1594 155.5,-1600 149.5,-1606 143.5,-1606"/>
<text text-anchor="middle" x="81" y="-1590.8" font-family="Times,serif" font-size="14.00">function_definition</text>
<text text-anchor="middle" x="81" y="-1575.8" font-family="Times,serif" font-size="14.00">language: python</text>
</g>
<!-- 63823f52d236afb2&#45;&gt;c1a3e5adf3872a29 -->
<g id="edge4" class="edge">
<title>63823f52d236afb2&#45;&gt;c1a3e5adf3872a29</title>
<path fill="none" stroke="blue" d="M155.62,-1587C183.48,-1587 215.3,-1587 243.67,-1587"/>
<polygon fill="blue" stroke="blue" points="243.95,-1590.5 253.95,-1587 243.95,-1583.5 243.95,-1590.5"/>
<text text-anchor="middle" x="208" y="-1590.8" font-family="Times,serif" font-size="14.00">calls</text>
</g>
</g>
</svg>
