<?xml version="1.0" encoding="UTF-8" standalone="no"?>
<!DOCTYPE svg PUBLIC "-//W3C//DTD SVG 1.1//EN"
 "http://www.w3.org/Graphics/SVG/1.1/DTD/svg11.dtd">
<!-- Generated by graphviz version 12.2.1 (20241206.2353)
 -->
<!-- Pages: 1 -->
<svg width="1100pt" height="992pt"
 viewBox="0.00 0.00 1099.93 991.50" xmlns="http://www.w3.org/2000/svg" xmlns:xlink="http://www.w3.org/1999/xlink">
<g id="graph0" class="graph" transform="scale(1 1) rotate(0) translate(4 987.5)">
<polygon fill="white" stroke="none" points="-4,4 -4,-987.5 1095.93,-987.5 1095.93,4 -4,4"/>
<!-- users -->
<g id="node1" class="node">
<title>users</title>
<g id="a_node1"><a xlink:title="users&#10;id integer NOT NULL&#10;username character varying(50) NOT NULL&#10;email character varying(100)&#10;created_at timestamp without time zone DEFAULT now()">
<path fill="#90be6d" stroke="black" d="M391,-800.5C391,-800.5 800,-800.5 800,-800.5 806,-800.5 812,-806.5 812,-812.5 812,-812.5 812,-971 812,-971 812,-977 806,-983 800,-983 800,-983 391,-983 391,-983 385,-983 379,-977 379,-971 379,-971 379,-812.5 379,-812.5 379,-806.5 385,-800.5 391,-800.5"/>
<text text-anchor="middle" x="595.5" y="-955.25" font-family="Times,serif" font-size="25.00">users</text>
<polyline fill="none" stroke="black" points="379,-946.5 812,-946.5"/>
<text text-anchor="middle" x="595.5" y="-918.75" font-family="Times,serif" font-size="25.00">id (integer)</text>
<polyline fill="none" stroke="black" points="379,-910 812,-910"/>
<text text-anchor="middle" x="595.5" y="-882.25" font-family="Times,serif" font-size="25.00">username (character varying(50))</text>
<polyline fill="none" stroke="black" points="379,-873.5 812,-873.5"/>
<text text-anchor="middle" x="595.5" y="-845.75" font-family="Times,serif" font-size="25.00">email (character varying(100))</text>
<polyline fill="none" stroke="black" points="379,-837 812,-837"/>
<text text-anchor="middle" x="595.5" y="-809.25" font-family="Times,serif" font-size="25.00">created_at (timestamp without time zone)</text>
</a>
</g>
</g>
<!-- posts -->
<g id="node2" class="node">
<title>posts</title>
<g id="a_node2"><a xlink:title="posts&#10;id integer NOT NULL&#10;title character varying(200) NOT NULL&#10;content text&#10;user_id integer&#10;created_at timestamp without time zone DEFAULT now()&#10;&#10;ALTER TABLE ONLY comments&#10; &#160;&#160;&#160;ADD CONSTRAINT comments_user_id_fkey FOREIGN KEY (user_id) REFERENCES users(id);&#10;">
<path fill="#264653" stroke="black" d="M12,-400.5C12,-400.5 421,-400.5 421,-400.5 427,-400.5 433,-406.5 433,-412.5 433,-412.5 433,-607.5 433,-607.5 433,-613.5 427,-619.5 421,-619.5 421,-619.5 12,-619.5 12,-619.5 6,-619.5 0,-613.5 0,-607.5 0,-607.5 0,-412.5 0,-412.5 0,-406.5 6,-400.5 12,-400.5"/>
<text text-anchor="middle" x="216.5" y="-591.75" font-family="Times,serif" font-size="25.00" fill="white">posts</text>
<polyline fill="none" stroke="black" points="0,-583 433,-583"/>
<text text-anchor="middle" x="216.5" y="-555.25" font-family="Times,serif" font-size="25.00" fill="white">id (integer)</text>
<polyline fill="none" stroke="black" points="0,-546.5 433,-546.5"/>
<text text-anchor="middle" x="216.5" y="-518.75" font-family="Times,serif" font-size="25.00" fill="white">title (character varying(200))</text>
<polyline fill="none" stroke="black" points="0,-510 433,-510"/>
<text text-anchor="middle" x="216.5" y="-482.25" font-family="Times,serif" font-size="25.00" fill="white">content (text)</text>
<polyline fill="none" stroke="black" points="0,-473.5 433,-473.5"/>
<text text-anchor="middle" x="216.5" y="-445.75" font-family="Times,serif" font-size="25.00" fill="white">user_id (integer) &#45;FK&#45;</text>
<polyline fill="none" stroke="black" points="0,-437 433,-437"/>
<text text-anchor="middle" x="216.5" y="-409.25" font-family="Times,serif" font-size="25.00" fill="white">created_at (timestamp without time zone)</text>
</a>
</g>
</g>
<!-- users&#45;&gt;posts -->
<g id="edge1" class="edge">
<title>users:id&#45;&gt;posts:user_id</title>
<g id="a_edge1"><a xlink:title="ALTER TABLE ONLY posts&#10; &#160;&#160;&#160;ADD CONSTRAINT posts_user_id_fkey FOREIGN KEY (user_id) REFERENCES users(id);">
<path fill="none" stroke="#90be6d" stroke-width="5" d="M337.58,-919.4C249.5,-855.86 569.76,-514.44 468.85,-463.04"/>
<path fill="none" stroke="#264653" stroke-width="5" d="M338.74,-917.77C250.96,-857.23 571.22,-515.81 469.77,-461.27"/>
<polygon fill="#264653" stroke="#264653" stroke-width="5" points="338.63,-918.7 358.96,-911.28 373.62,-927.19 353.3,-934.61 338.63,-918.7"/>
<polygon fill="#90be6d" stroke="#90be6d" stroke-width="5" points="472.08,-449.32 440.12,-456.45 467.04,-475.09 472.08,-449.32"/>
</a>
</g>
</g>
<!-- comments -->
<g id="node3" class="node">
<title>comments</title>
<g id="a_node3"><a xlink:title="comments&#10;id integer NOT NULL&#10;post_id integer&#10;user_id integer&#10;content text NOT NULL&#10;created_at timestamp without time zone DEFAULT now()&#10;&#10;ALTER TABLE ONLY comments&#10; &#160;&#160;&#160;ADD CONSTRAINT comments_post_id_fkey FOREIGN KEY (post_id) REFERENCES posts(id);&#10;&#10;&#10;ALTER TABLE ONLY comments&#10; &#160;&#160;&#160;ADD CONSTRAINT comments_user_id_fkey FOREIGN KEY (user_id) REFERENCES users(id);&#10;">
<path fill="#f9c74f" stroke="black" d="M391,-0.5C391,-0.5 800,-0.5 800,-0.5 806,-0.5 812,-6.5 812,-12.5 812,-12.5 812,-207.5 812,-207.5 812,-213.5 806,-219.5 800,-219.5 800,-219.5 391,-219.5 391,-219.5 385,-219.5 379,-213.5 379,-207.5 379,-207.5 379,-12.5 379,-12.5 379,-6.5 385,-0.5 391,-0.5"/>
<text text-anchor="middle" x="595.5" y="-191.75" font-family="Times,serif" font-size="25.00">comments</text>
<polyline fill="none" stroke="black" points="379,-183 812,-183"/>
<text text-anchor="middle" x="595.5" y="-155.25" font-family="Times,serif" font-size="25.00">id (integer)</text>
<polyline fill="none" stroke="black" points="379,-146.5 812,-146.5"/>
<text text-anchor="middle" x="595.5" y="-118.75" font-family="Times,serif" font-size="25.00">post_id (integer) &#45;FK&#45;</text>
<polyline fill="none" stroke="black" points="379,-110 812,-110"/>
<text text-anchor="middle" x="595.5" y="-82.25" font-family="Times,serif" font-size="25.00">user_id (integer) &#45;FK&#45;</text>
<polyline fill="none" stroke="black" points="379,-73.5 812,-73.5"/>
<text text-anchor="middle" x="595.5" y="-45.75" font-family="Times,serif" font-size="25.00">content (text)</text>
<polyline fill="none" stroke="black" points="379,-37 812,-37"/>
<text text-anchor="middle" x="595.5" y="-9.25" font-family="Times,serif" font-size="25.00">created_at (timestamp without time zone)</text>
</a>
</g>
</g>
<!-- users&#45;&gt;comments -->
<g id="edge3" class="edge">
<title>users:id&#45;&gt;comments:user_id</title>
<g id="a_edge3"><a xlink:title="ALTER TABLE ONLY comments&#10; &#160;&#160;&#160;ADD CONSTRAINT comments_user_id_fkey FOREIGN KEY (user_id) REFERENCES users(id);">
<path fill="none" stroke="#90be6d" stroke-width="5" d="M853.69,-923.72C1171.78,-867.79 1170.15,-144.56 848.8,-95.47"/>
<path fill="none" stroke="#f9c74f" stroke-width="5" d="M854.04,-925.69C1173.78,-867.79 1172.15,-144.55 849.11,-93.49"/>
<polygon fill="#f9c74f" stroke="#f9c74f" stroke-width="5" points="853.36,-924.75 836.46,-938.26 817.49,-927.86 834.38,-914.35 853.36,-924.75"/>
<polygon fill="#90be6d" stroke="#90be6d" stroke-width="5" points="850.13,-81.41 819.22,-92.22 848.14,-107.58 850.13,-81.41"/>
</a>
</g>
</g>
<!-- posts&#45;&gt;comments -->
<g id="edge2" class="edge">
<title>posts:id&#45;&gt;comments:post_id</title>
<path fill="none" stroke="#264653" stroke-width="5" d="M472.95,-552.78C542.45,-491.89 258.42,-189.45 342.37,-135.24"/>
<path fill="none" stroke="#f9c74f" stroke-width="5" d="M474.29,-554.27C543.91,-490.52 259.88,-188.08 343.43,-136.93"/>
<polygon fill="#f9c74f" stroke="#f9c74f" stroke-width="5" points="472.97,-553.71 458.93,-570.16 438.34,-563.52 452.38,-547.07 472.97,-553.71"/>
<polygon fill="#264653" stroke="#264653" stroke-width="5" points="345.49,-148.95 371.91,-129.61 339.77,-123.33 345.49,-148.95"/>
</g>
</g>
</svg>
